# This file uses centimeters as units for non-parametric coordinates.

mtllib armL.mtl
g default
v 1.954286 15.653584 -2.056011
v 1.854147 15.489063 -0.635478
v 1.646030 15.546457 -1.626918
v 3.464037 16.013098 -1.011991
v 2.640611 15.620674 -0.138480
v 2.812912 15.883836 -1.975394
vt 0.679034 0.160861
vt 0.674647 0.102287
vt 0.666097 0.142974
vt 0.743547 0.119571
vt 0.707630 0.082448
vt 0.715524 0.158399
vn 0.201319 -0.974543 -0.098676
vn 0.201319 -0.974543 -0.098676
vn 0.201319 -0.974543 -0.098676
vn 0.289176 -0.953037 -0.089992
vn 0.289176 -0.953037 -0.089992
vn 0.289176 -0.953037 -0.089992
vn 0.268006 -0.947733 -0.173130
vn 0.268006 -0.947733 -0.173130
vn 0.268006 -0.947733 -0.173130
vn 0.262948 -0.963594 -0.048428
vn 0.262948 -0.963594 -0.048428
vn 0.262948 -0.963594 -0.048428
s off
g polySurface6 model3:abta273_2_Mesh_011__n_abta273_2_Mesh_011__n__null_
usemtl model3:initialShadingGroup
f 1/1/1 2/2/2 3/3/3
f 1/1/4 4/4/5 2/2/6
f 4/4/7 5/5/8 2/2/9
f 1/1/10 6/6/11 4/4/12
g default
v 2.281302 16.604217 -0.052433
v 1.508900 16.466088 -0.550017
v 1.854147 15.489063 -0.635478
v 2.640611 15.620674 -0.138480
v 3.236838 16.996671 -0.926354
v 3.464037 16.013098 -1.011991
v 2.503569 16.871989 -2.012796
v 2.812912 15.883836 -1.975394
v 1.684958 16.654536 -2.092297
v 1.954286 15.653584 -2.056011
v 1.371975 16.525479 -1.541252
v 1.646030 15.546457 -1.626918
v 1.508900 16.466088 -0.550017
v 1.854147 15.489063 -0.635478
vt 0.983106 0.211222
vt 0.982287 0.072421
vt 0.829280 0.075379
vt 0.832460 0.213957
vt 0.979872 0.379887
vt 0.832626 0.376442
vt 0.967389 0.569652
vt 0.818912 0.544800
vt 0.956435 0.707030
vt 0.807150 0.685058
vt 0.945762 0.796405
vt 0.795367 0.768624
vt 0.919486 0.931067
vt 0.771284 0.898606
vn -0.493120 -0.247210 0.834098
vn -0.493120 -0.247210 0.834098
vn -0.493120 -0.247210 0.834098
vn -0.486739 -0.251017 0.836705
vn -0.486739 -0.251017 0.836705
vn -0.486739 -0.251017 0.836705
vn 0.628545 0.163089 0.760483
vn 0.628545 0.163089 0.760482
vn 0.628545 0.163089 0.760482
vn 0.701054 0.100471 0.705995
vn 0.701054 0.100471 0.705995
vn 0.701054 0.100471 0.705995
vn 0.793637 0.232283 -0.562304
vn 0.793637 0.232283 -0.562304
vn 0.793637 0.232283 -0.562304
vn 0.792569 0.226689 -0.566080
vn 0.792569 0.226689 -0.566081
vn 0.792569 0.226689 -0.566081
vn 0.098460 -0.006842 -0.995117
vn 0.098460 -0.006842 -0.995117
vn 0.098460 -0.006842 -0.995117
vn 0.096185 -0.010201 -0.995311
vn 0.096185 -0.010201 -0.995311
vn 0.096185 -0.010201 -0.995311
vn -0.819134 -0.239304 -0.521299
vn -0.819134 -0.239304 -0.521299
vn -0.819134 -0.239304 -0.521299
vn -0.780816 -0.165866 -0.602341
vn -0.780816 -0.165866 -0.602341
vn -0.780816 -0.165866 -0.602341
vn -0.953913 -0.277103 0.115166
vn -0.953913 -0.277103 0.115166
vn -0.953913 -0.277103 0.115166
vn -0.923583 -0.341590 0.174098
vn -0.923583 -0.341590 0.174098
vn -0.923583 -0.341590 0.174098
s off
g model3:abta273_2_Mesh_011__n_abta273_2_Mesh_011__n__null_ polySurface7
usemtl model3:initialShadingGroup
f 7/7/13 8/8/14 9/9/15
f 9/9/16 10/10/17 7/7/18
f 11/11/19 7/7/20 10/10/21
f 10/10/22 12/12/23 11/11/24
f 13/13/25 11/11/26 12/12/27
f 12/12/28 14/14/29 13/13/30
f 15/15/31 13/13/32 14/14/33
f 14/14/34 16/16/35 15/15/36
f 17/17/37 15/15/38 16/16/39
f 16/16/40 18/18/41 17/17/42
f 19/19/43 17/17/44 18/18/45
f 18/18/46 20/20/47 19/19/48
g default
v 2.737316 16.201575 0.015002
v 3.089491 16.912179 -0.550957
v 2.739048 16.740642 -0.145732
v 3.436470 16.005612 -0.634685
v 3.438203 16.544679 -0.795419
v 3.243150 16.487813 -0.988152
v 2.894468 16.855343 -0.743690
v 2.544024 16.683806 -0.338465
v 2.542263 16.144739 -0.177732
v 3.086027 15.834046 -0.229460
v 2.890974 15.777209 -0.422194
v 3.241418 15.948746 -0.827419
vt 0.608156 0.268816
vt 0.765035 0.359390
vt 0.660449 0.359390
vt 0.765035 0.178242
vt 0.817328 0.268816
vt 0.817328 0.268816
vt 0.817328 0.268816
vt 0.765035 0.359390
vt 0.765035 0.359390
vt 0.765035 0.359390
vt 0.660449 0.359390
vt 0.660449 0.359390
vt 0.660449 0.359390
vt 0.608156 0.268816
vt 0.660449 0.178242
vt 0.608156 0.268816
vt 0.660449 0.178242
vt 0.660449 0.178242
vt 0.765035 0.178242
vt 0.765035 0.178242
vt 0.765035 0.178242
vt 0.817328 0.268816
vt 0.817328 0.268816
vt 0.765035 0.178242
vt 0.660449 0.178242
vt 0.660449 0.359390
vt 0.817328 0.268816
vt 0.660449 0.178242
vt 0.660449 0.359390
vt 0.765035 0.359390
vt 0.817328 0.268816
vt 0.660449 0.359390
vt 0.660449 0.178242
vt 0.608156 0.268816
vt 0.608156 0.268816
vt 0.660449 0.178242
vn 0.696491 0.202980 0.688258
vn 0.696491 0.202980 0.688258
vn 0.696491 0.202980 0.688258
vn 0.696472 0.203000 0.688272
vn 0.696472 0.203000 0.688272
vn 0.696472 0.203000 0.688272
vn 0.696452 0.202991 0.688294
vn 0.696452 0.202991 0.688294
vn 0.696452 0.202991 0.688294
vn 0.361383 0.729337 -0.580922
vn 0.361383 0.729337 -0.580922
vn 0.361383 0.729337 -0.580922
vn 0.361498 0.729323 -0.580868
vn 0.361498 0.729323 -0.580868
vn 0.361498 0.729323 -0.580868
vn -0.356099 0.930489 0.085931
vn -0.356099 0.930489 0.085931
vn -0.356099 0.930489 0.085931
vn -0.356098 0.930489 0.085931
vn -0.356098 0.930489 0.085931
vn -0.356098 0.930489 0.085931
vn -0.717584 0.201125 0.666799
vn -0.717584 0.201125 0.666799
vn -0.717584 0.201125 0.666799
vn -0.717532 0.201177 0.666840
vn -0.717532 0.201177 0.666840
vn -0.717532 0.201177 0.666840
vn -0.361459 -0.729328 0.580886
vn -0.361459 -0.729328 0.580886
vn -0.361459 -0.729327 0.580886
vn 0.696472 0.203010 0.688269
vn 0.696472 0.203010 0.688269
vn 0.696472 0.203010 0.688269
vn 0.356103 -0.930482 -0.085991
vn 0.356103 -0.930482 -0.085991
vn 0.356103 -0.930482 -0.085991
vn 0.356140 -0.930477 -0.085889
vn 0.356140 -0.930477 -0.085889
vn 0.356140 -0.930477 -0.085889
vn 0.717547 -0.201136 -0.666836
vn 0.717547 -0.201136 -0.666836
vn 0.717547 -0.201136 -0.666836
vn 0.717547 -0.201136 -0.666836
vn 0.717547 -0.201136 -0.666837
vn 0.717547 -0.201136 -0.666836
vn -0.696491 -0.202981 -0.688258
vn -0.696491 -0.202981 -0.688258
vn -0.696491 -0.202981 -0.688258
vn -0.696491 -0.202979 -0.688258
vn -0.696491 -0.202979 -0.688258
vn -0.696491 -0.202979 -0.688258
vn -0.696491 -0.202981 -0.688258
vn -0.696491 -0.202981 -0.688258
vn -0.696491 -0.202981 -0.688258
vn -0.696446 -0.202958 -0.688310
vn -0.696446 -0.202958 -0.688310
vn -0.696446 -0.202958 -0.688310
vn -0.361460 -0.729327 0.580886
vn -0.361460 -0.729328 0.580886
vn -0.361460 -0.729327 0.580886
s off
g model3:abta273_2_Mesh_011__n_abta273_2_Mesh_011__n__null_ polySurface25
usemtl model3:initialShadingGroup
f 21/21/49 22/22/50 23/23/51
f 21/21/52 24/24/53 22/22/54
f 24/24/55 25/25/56 22/22/57
f 22/22/58 25/25/59 26/26/60
f 26/27/61 27/28/62 22/22/63
f 23/23/64 22/22/65 27/29/66
f 27/30/67 28/31/68 23/23/69
f 21/21/70 23/23/71 28/32/72
f 28/33/73 29/34/74 21/21/75
f 30/35/76 21/21/77 29/36/78
f 21/21/79 30/35/80 24/24/81
f 24/24/82 30/35/83 31/37/84
f 31/38/85 32/39/86 24/24/87
f 25/25/88 24/24/89 32/40/90
f 32/41/91 26/42/92 25/25/93
f 26/43/94 32/44/95 31/45/96
f 28/46/97 26/47/98 31/48/99
f 28/49/100 27/50/101 26/51/102
f 28/52/103 31/53/104 29/54/105
f 29/55/106 31/56/107 30/35/108
g default
v 1.371975 16.525479 -1.541252
v 2.503569 16.871989 -2.012796
v 1.684958 16.654536 -2.092297
v 2.281302 16.604217 -0.052433
v 3.236838 16.996671 -0.926354
v 1.508900 16.466088 -0.550017
vt 0.818768 0.096677
vt 0.756823 0.123105
vt 0.801685 0.126290
vt 0.769492 0.018618
vt 0.716379 0.066470
vt 0.811405 0.044196
vn -0.262875 0.961835 0.075957
vn -0.262875 0.961835 0.075957
vn -0.262875 0.961835 0.075957
vn -0.251791 0.962296 0.102895
vn -0.251791 0.962296 0.102895
vn -0.251791 0.962296 0.102895
vn -0.302404 0.948408 0.095259
vn -0.302404 0.948408 0.095259
vn -0.302404 0.948408 0.095259
vn -0.231204 0.968735 0.089980
vn -0.231204 0.968735 0.089980
vn -0.231204 0.968735 0.089980
s off
g model3:abta273_2_Mesh_011__n_abta273_2_Mesh_011__n__null_ polySurface5
usemtl model3:initialShadingGroup
f 33/57/109 34/58/110 35/59/111
f 33/57/112 36/60/113 34/58/114
f 36/60/115 37/61/116 34/58/117
f 33/57/118 38/62/119 36/60/120
g default
v 1.921552 16.594617 -1.735630
v 1.791292 16.495417 -0.636769
v 1.662617 16.668569 -0.506891
v 1.725648 16.837405 -1.933442
v 1.689391 17.004333 -0.652975
v 1.686690 17.130718 -1.775321
v 1.540371 17.569088 -1.711586
v 1.565824 17.552530 -0.453166
vt 0.561380 0.853055
vt 0.709402 0.797729
vt 0.715479 0.763342
vt 0.520129 0.825471
vt 0.677699 0.731409
vt 0.523907 0.778734
vt 0.490849 0.697014
vt 0.673824 0.677676
vn -0.843451 -0.516805 -0.146639
vn -0.843451 -0.516805 -0.146639
vn -0.843451 -0.516805 -0.146639
vn -0.726605 -0.677811 -0.112325
vn -0.726605 -0.677811 -0.112325
vn -0.726605 -0.677811 -0.112325
vn -0.997305 0.063630 -0.036534
vn -0.997305 0.063630 -0.036534
vn -0.997305 0.063630 -0.036534
vn -0.992033 -0.125432 -0.011738
vn -0.992033 -0.125432 -0.011738
vn -0.992033 -0.125432 -0.011738
vn -0.949469 -0.312136 -0.032864
vn -0.949469 -0.312136 -0.032864
vn -0.949469 -0.312136 -0.032864
vn -0.974063 -0.225658 0.016733
vn -0.974063 -0.225658 0.016733
vn -0.974063 -0.225658 0.016733
s off
g model3:abta273_2_Mesh_011__n_abta273_2_Mesh_011__n__null_ polySurface8
usemtl model3:initialShadingGroup
f 39/63/121 40/64/122 41/65/123
f 41/65/124 42/66/125 39/63/126
f 42/66/127 41/65/128 43/67/129
f 43/67/130 44/68/131 42/66/132
f 45/69/133 44/68/134 43/67/135
f 43/67/136 46/70/137 45/69/138
g default
v 1.662617 16.668569 -0.506891
v 1.791292 16.495417 -0.636769
v 2.266300 16.586485 -0.443713
v 2.171357 16.887578 -0.183427
v 2.111761 17.122351 -0.345071
v 1.689391 17.004333 -0.652975
v 1.565824 17.552530 -0.453166
v 1.805618 17.898042 -0.265629
v 1.678441 18.187010 -0.203743
v 2.960200 17.287782 -0.993114
v 2.710688 17.457676 -0.999279
v 2.253089 18.408749 -0.897995
v 1.972371 18.744719 -0.917136
v 1.740826 18.612315 -1.606426
v 1.954991 18.205769 -1.588870
v 1.540371 17.569088 -1.711586
v 2.874828 16.806491 -1.043492
v 2.433904 17.135386 -1.861956
v 2.289522 17.338160 -1.671483
v 2.430381 16.686389 -1.656041
v 1.725648 16.837405 -1.933442
v 1.686690 17.130718 -1.775321
v 1.921552 16.594617 -1.735630
vt 0.533871 0.382604
vt 0.512575 0.394379
vt 0.504895 0.455133
vt 0.537288 0.438208
vt 0.561967 0.450658
vt 0.563086 0.395731
vt 0.599035 0.401915
vt 0.647353 0.449738
vt 0.682813 0.446292
vt 0.540304 0.532506
vt 0.566093 0.532872
vt 0.674095 0.530539
vt 0.725451 0.529959
vt 0.724380 0.606938
vt 0.661514 0.606740
vt 0.630720 0.666493
vt 0.501578 0.534831
vt 0.539114 0.616065
vt 0.566225 0.604931
vt 0.501739 0.608928
vt 0.535959 0.683703
vt 0.566556 0.674297
vt 0.505822 0.670231
vn -0.166727 -0.667937 0.725302
vn -0.166727 -0.667937 0.725302
vn -0.166727 -0.667937 0.725302
vn -0.166971 -0.674406 0.719233
vn -0.166971 -0.674406 0.719233
vn -0.166971 -0.674406 0.719233
vn -0.604598 0.341865 0.719437
vn -0.604597 0.341865 0.719438
vn -0.604597 0.341865 0.719438
vn -0.613417 0.355699 0.705123
vn -0.613417 0.355699 0.705123
vn -0.613417 0.355699 0.705123
vn -0.467075 -0.393831 0.791668
vn -0.467075 -0.393831 0.791668
vn -0.467075 -0.393831 0.791668
vn -0.364378 -0.236068 0.900833
vn -0.364378 -0.236068 0.900833
vn -0.364378 -0.236068 0.900833
vn -0.264429 -0.311824 0.912602
vn -0.264429 -0.311824 0.912602
vn -0.264429 -0.311824 0.912602
vn 0.753092 -0.278006 0.596293
vn 0.753092 -0.278006 0.596293
vn 0.753092 -0.278006 0.596293
vn 0.397074 0.608102 0.687419
vn 0.397074 0.608102 0.687419
vn 0.397074 0.608102 0.687419
vn 0.427259 0.583792 0.690389
vn 0.427259 0.583792 0.690389
vn 0.427259 0.583792 0.690389
vn 0.672722 0.192333 0.714460
vn 0.672722 0.192333 0.714460
vn 0.672722 0.192333 0.714460
vn 0.680658 0.254325 0.687040
vn 0.680658 0.254325 0.687040
vn 0.680658 0.254325 0.687040
vn 0.728957 0.179333 0.660652
vn 0.728957 0.179333 0.660652
vn 0.728957 0.179333 0.660652
vn 0.572479 0.514696 0.638245
vn 0.572479 0.514696 0.638245
vn 0.572479 0.514696 0.638245
vn 0.726760 0.586911 -0.356869
vn 0.726760 0.586911 -0.356869
vn 0.726760 0.586911 -0.356869
vn 0.793819 0.398332 -0.459546
vn 0.793819 0.398332 -0.459546
vn 0.793819 0.398332 -0.459546
vn 0.196009 0.060992 -0.978703
vn 0.196009 0.060992 -0.978703
vn 0.196009 0.060992 -0.978703
vn 0.723436 -0.197568 0.661518
vn 0.723436 -0.197568 0.661518
vn 0.723436 -0.197568 0.661518
vn 0.858709 -0.099704 -0.502670
vn 0.858709 -0.099704 -0.502670
vn 0.858709 -0.099704 -0.502670
vn 0.492813 0.755840 -0.431093
vn 0.492813 0.755840 -0.431094
vn 0.492813 0.755840 -0.431093
vn 0.510192 0.732957 -0.449975
vn 0.510192 0.732957 -0.449975
vn 0.510192 0.732957 -0.449975
vn 0.765824 0.346845 -0.541491
vn 0.765824 0.346845 -0.541491
vn 0.765824 0.346845 -0.541491
vn 0.779505 0.424140 -0.460953
vn 0.779505 0.424140 -0.460953
vn 0.779505 0.424140 -0.460953
vn 0.806099 -0.251906 -0.535489
vn 0.806099 -0.251906 -0.535489
vn 0.806099 -0.251906 -0.535489
vn 0.258666 -0.404352 -0.877264
vn 0.258666 -0.404352 -0.877264
vn 0.258666 -0.404352 -0.877264
vn -0.105042 0.461054 -0.881133
vn -0.105042 0.461054 -0.881133
vn -0.105042 0.461054 -0.881133
vn -0.091876 0.646223 -0.757598
vn -0.091876 0.646223 -0.757598
vn -0.091876 0.646223 -0.757598
vn 0.107234 0.178011 -0.978168
vn 0.107234 0.178011 -0.978168
vn 0.107234 0.178011 -0.978168
vn 0.092856 0.129802 -0.987182
vn 0.092856 0.129802 -0.987182
vn 0.092856 0.129802 -0.987182
vn 0.221348 -0.502390 -0.835829
vn 0.221348 -0.502390 -0.835829
vn 0.221348 -0.502390 -0.835829
s off
g model3:abta273_2_Mesh_011__n_abta273_2_Mesh_011__n__null_ polySurface9
usemtl model3:initialShadingGroup
f 47/71/139 48/72/140 49/73/141
f 49/73/142 50/74/143 47/71/144
f 47/71/145 50/74/146 51/75/147
f 51/75/148 52/76/149 47/71/150
f 53/77/151 52/76/152 51/75/153
f 51/75/154 54/78/155 53/77/156
f 55/79/157 53/77/158 54/78/159
f 56/80/160 50/74/161 49/73/162
f 50/74/163 56/80/164 57/81/165
f 57/81/166 51/75/167 50/74/168
f 54/78/169 51/75/170 57/81/171
f 57/81/172 58/82/173 54/78/174
f 55/79/175 54/78/176 58/82/177
f 58/82/178 59/83/179 55/79/180
f 60/84/181 59/83/182 58/82/183
f 58/82/184 61/85/185 60/84/186
f 62/86/187 60/84/188 61/85/189
f 49/73/190 63/87/191 56/80/192
f 64/88/193 56/80/194 63/87/195
f 56/80/196 64/88/197 65/89/198
f 65/89/199 57/81/200 56/80/201
f 57/81/202 65/89/203 61/85/204
f 61/85/205 58/82/206 57/81/207
f 63/87/208 66/90/209 64/88/210
f 67/91/211 64/88/212 66/90/213
f 64/88/214 67/91/215 68/92/216
f 68/92/217 65/89/218 64/88/219
f 65/89/220 68/92/221 62/86/222
f 62/86/223 61/85/224 65/89/225
f 66/90/226 69/93/227 67/91/228
