# This file uses centimeters as units for non-parametric coordinates.

mtllib armR.mtl
g default
v -2.737316 16.201575 0.015002
v -2.739048 16.740642 -0.145732
v -3.089491 16.912179 -0.550957
v -2.544024 16.683806 -0.338465
v -2.894468 16.855343 -0.743690
v -3.243150 16.487813 -0.988152
v -3.438203 16.544679 -0.795419
v -3.436470 16.005612 -0.634685
v -3.086027 15.834075 -0.229460
v -2.542263 16.144739 -0.177732
v -2.890974 15.777209 -0.422194
v -3.241418 15.948746 -0.827419
vt 0.608156 0.268816
vt 0.660449 0.359390
vt 0.765035 0.359390
vt 0.608156 0.268816
vt 0.660449 0.359390
vt 0.660449 0.359390
vt 0.765035 0.359390
vt 0.660449 0.359390
vt 0.660449 0.359390
vt 0.660449 0.359390
vt 0.765035 0.359390
vt 0.765035 0.359390
vt 0.817328 0.268816
vt 0.765035 0.359390
vt 0.765035 0.359390
vt 0.765035 0.359390
vt 0.817328 0.268816
vt 0.817328 0.268816
vt 0.765035 0.178242
vt 0.765035 0.359390
vt 0.817328 0.268816
vt 0.608156 0.268816
vt 0.765035 0.359390
vt 0.765035 0.178242
vt 0.608156 0.268816
vt 0.765035 0.178242
vt 0.660449 0.178242
vt 0.660449 0.178242
vt 0.608156 0.268816
vt 0.608156 0.268816
vt 0.660449 0.359390
vt 0.608156 0.268816
vt 0.608156 0.268816
vt 0.660449 0.359390
vt 0.608156 0.268816
vt 0.660449 0.178242
vt 0.660449 0.359390
vt 0.660449 0.178242
vt 0.817328 0.268816
vt 0.660449 0.359390
vt 0.817328 0.268816
vt 0.765035 0.359390
vt 0.765035 0.178242
vt 0.660449 0.178242
vt 0.660449 0.178242
vt 0.608156 0.268816
vt 0.660449 0.178242
vt 0.660449 0.178242
vt 0.660449 0.178242
vt 0.765035 0.178242
vt 0.765035 0.178242
vt 0.817328 0.268816
vt 0.660449 0.178242
vt 0.765035 0.178242
vt 0.765035 0.178242
vt 0.817328 0.268816
vt 0.817328 0.268816
vt 0.817328 0.268816
vt 0.765035 0.178242
vt 0.765035 0.178242
vn -0.696491 0.202981 0.688258
vn -0.696491 0.202981 0.688258
vn -0.696491 0.202981 0.688258
vn 0.717584 0.201125 0.666799
vn 0.717584 0.201125 0.666799
vn 0.717584 0.201125 0.666799
vn 0.356098 0.930489 0.085931
vn 0.356098 0.930489 0.085931
vn 0.356098 0.930489 0.085931
vn 0.356098 0.930489 0.085931
vn 0.356098 0.930489 0.085931
vn 0.356098 0.930489 0.085931
vn -0.361498 0.729323 -0.580868
vn -0.361498 0.729323 -0.580868
vn -0.361498 0.729323 -0.580868
vn -0.361383 0.729337 -0.580922
vn -0.361383 0.729337 -0.580922
vn -0.361383 0.729337 -0.580922
vn -0.696452 0.202991 0.688294
vn -0.696452 0.202991 0.688294
vn -0.696452 0.202991 0.688294
vn -0.696472 0.203000 0.688272
vn -0.696472 0.203000 0.688272
vn -0.696472 0.203000 0.688272
vn -0.696472 0.203030 0.688263
vn -0.696472 0.203030 0.688263
vn -0.696472 0.203030 0.688263
vn 0.361436 -0.729352 0.580869
vn 0.361436 -0.729352 0.580869
vn 0.361436 -0.729352 0.580869
vn 0.717532 0.201177 0.666840
vn 0.717532 0.201177 0.666840
vn 0.717532 0.201177 0.666840
vn 0.696446 -0.202958 -0.688310
vn 0.696446 -0.202958 -0.688310
vn 0.696446 -0.202958 -0.688310
vn 0.696491 -0.202980 -0.688258
vn 0.696491 -0.202980 -0.688258
vn 0.696491 -0.202980 -0.688258
vn 0.696491 -0.202981 -0.688258
vn 0.696491 -0.202981 -0.688258
vn 0.696491 -0.202981 -0.688258
vn -0.356140 -0.930477 -0.085889
vn -0.356140 -0.930477 -0.085889
vn -0.356140 -0.930477 -0.085889
vn 0.361406 -0.729312 0.580938
vn 0.361406 -0.729312 0.580938
vn 0.361406 -0.729312 0.580938
vn -0.356140 -0.930477 -0.085889
vn -0.356140 -0.930477 -0.085889
vn -0.356140 -0.930477 -0.085889
vn 0.696491 -0.202981 -0.688258
vn 0.696491 -0.202981 -0.688258
vn 0.696491 -0.202981 -0.688258
vn -0.717547 -0.201136 -0.666836
vn -0.717547 -0.201136 -0.666836
vn -0.717547 -0.201136 -0.666836
vn -0.717547 -0.201136 -0.666836
vn -0.717547 -0.201136 -0.666836
vn -0.717547 -0.201136 -0.666836
s off
g polySurface26 model3:abta273_2_Mesh_011__n_abta273_2_Mesh_011__n__null_
usemtl model3:initialShadingGroup
f 1/1/1 2/2/2 3/3/3
f 1/4/4 4/5/5 2/6/6
f 5/7/7 2/8/8 4/9/9
f 2/10/10 5/11/11 3/12/12
f 6/13/13 3/14/14 5/15/15
f 3/16/16 6/17/17 7/18/18
f 8/19/19 3/20/20 7/21/21
f 1/22/22 3/23/23 8/24/24
f 1/25/25 8/26/26 9/27/27
f 9/28/28 10/29/29 1/30/30
f 4/31/31 1/32/32 10/33/33
f 4/34/34 10/35/35 11/36/36
f 4/37/37 11/38/38 6/39/39
f 4/40/40 6/41/41 5/42/42
f 8/43/43 11/44/44 9/45/45
f 10/46/46 9/47/47 11/48/48
f 11/49/49 8/50/50 12/51/51
f 6/52/52 11/53/53 12/54/54
f 12/55/55 7/56/56 6/57/57
f 7/58/58 12/59/59 8/60/60
g default
v -1.371975 16.525479 -1.541252
v -1.684958 16.654536 -2.092297
v -2.503569 16.871989 -2.012796
v -2.281302 16.604217 -0.052433
v -1.508900 16.466088 -0.550017
v -3.236838 16.996671 -0.926354
vt 0.818768 0.096677
vt 0.801685 0.126290
vt 0.756823 0.123105
vt 0.818768 0.096677
vt 0.756823 0.123105
vt 0.769492 0.018618
vt 0.818768 0.096677
vt 0.769492 0.018618
vt 0.811405 0.044196
vt 0.769492 0.018618
vt 0.756823 0.123105
vt 0.716379 0.066470
vn 0.262875 0.961835 0.075958
vn 0.262875 0.961835 0.075958
vn 0.262875 0.961835 0.075958
vn 0.251791 0.962296 0.102895
vn 0.251791 0.962296 0.102895
vn 0.251791 0.962296 0.102895
vn 0.231204 0.968735 0.089980
vn 0.231204 0.968735 0.089980
vn 0.231204 0.968735 0.089980
vn 0.302404 0.948408 0.095259
vn 0.302404 0.948408 0.095259
vn 0.302404 0.948408 0.095259
s off
g model3:abta273_2_Mesh_011__n_abta273_2_Mesh_011__n__null_ polySurface14
usemtl model3:initialShadingGroup
f 13/61/61 14/62/62 15/63/63
f 13/64/64 15/65/65 16/66/66
f 13/67/67 16/68/68 17/69/69
f 16/70/70 15/71/71 18/72/72
g default
v -1.921552 16.594617 -1.735630
v -1.662617 16.668569 -0.506891
v -1.791292 16.495417 -0.636769
v -1.725648 16.837405 -1.933442
v -1.689391 17.004333 -0.652975
v -1.686690 17.130718 -1.775351
v -1.540371 17.569088 -1.711586
v -1.565824 17.552530 -0.453166
vt 0.561380 0.853055
vt 0.715479 0.763342
vt 0.709402 0.797729
vt 0.715479 0.763342
vt 0.561380 0.853055
vt 0.520129 0.825471
vt 0.520129 0.825471
vt 0.677699 0.731409
vt 0.715479 0.763342
vt 0.677699 0.731409
vt 0.520129 0.825471
vt 0.523907 0.778734
vt 0.490849 0.697014
vt 0.677699 0.731409
vt 0.523907 0.778734
vt 0.677699 0.731409
vt 0.490849 0.697014
vt 0.673824 0.677676
vn 0.843451 -0.516805 -0.146639
vn 0.843451 -0.516805 -0.146639
vn 0.843451 -0.516805 -0.146639
vn 0.726605 -0.677811 -0.112325
vn 0.726605 -0.677811 -0.112325
vn 0.726605 -0.677811 -0.112325
vn 0.997305 0.063630 -0.036534
vn 0.997305 0.063630 -0.036534
vn 0.997305 0.063630 -0.036534
vn 0.992033 -0.125434 -0.011737
vn 0.992033 -0.125434 -0.011737
vn 0.992033 -0.125434 -0.011737
vn 0.949470 -0.312134 -0.032863
vn 0.949470 -0.312134 -0.032863
vn 0.949470 -0.312134 -0.032863
vn 0.974063 -0.225658 0.016733
vn 0.974063 -0.225658 0.016733
vn 0.974063 -0.225658 0.016733
s off
g model3:abta273_2_Mesh_011__n_abta273_2_Mesh_011__n__null_ polySurface17
usemtl model3:initialShadingGroup
f 19/73/73 20/74/74 21/75/75
f 20/76/76 19/77/77 22/78/78
f 22/79/79 23/80/80 20/81/81
f 23/82/82 22/83/83 24/84/84
f 25/85/85 23/86/86 24/87/87
f 23/88/88 25/89/89 26/90/90
g default
v -1.662617 16.668569 -0.506891
v -2.266300 16.586485 -0.443713
v -1.791292 16.495417 -0.636769
v -2.171357 16.887578 -0.183427
v -2.960200 17.287782 -0.993114
v -2.874828 16.806491 -1.043492
v -2.433904 17.135386 -1.861956
v -2.430381 16.686389 -1.656041
v -1.725648 16.837405 -1.933442
v -1.921552 16.594617 -1.735630
v -2.111761 17.122351 -0.345071
v -2.710688 17.457676 -0.999279
v -2.289522 17.338160 -1.671483
v -1.686690 17.130718 -1.775351
v -1.689391 17.004333 -0.652975
v -1.565824 17.552530 -0.453166
v -1.805589 17.898042 -0.265629
v -2.253060 18.408749 -0.897995
v -1.954961 18.205769 -1.588870
v -1.540371 17.569088 -1.711586
v -1.678441 18.187010 -0.203743
v -1.972371 18.744719 -0.917136
v -1.740797 18.612315 -1.606426
vt 0.533871 0.382604
vt 0.504895 0.455133
vt 0.512575 0.394379
vt 0.504895 0.455133
vt 0.533871 0.382604
vt 0.537288 0.438208
vt 0.540304 0.532506
vt 0.504895 0.455133
vt 0.537288 0.438208
vt 0.504895 0.455133
vt 0.540304 0.532506
vt 0.501578 0.534831
vt 0.539114 0.616065
vt 0.501578 0.534831
vt 0.540304 0.532506
vt 0.501578 0.534831
vt 0.539114 0.616065
vt 0.501739 0.608928
vt 0.535959 0.683703
vt 0.501739 0.608928
vt 0.539114 0.616065
vt 0.501739 0.608928
vt 0.535959 0.683703
vt 0.505822 0.670231
vt 0.533871 0.382604
vt 0.561967 0.450658
vt 0.537288 0.438208
vt 0.566093 0.532872
vt 0.537288 0.438208
vt 0.561967 0.450658
vt 0.537288 0.438208
vt 0.566093 0.532872
vt 0.540304 0.532506
vt 0.566225 0.604931
vt 0.540304 0.532506
vt 0.566093 0.532872
vt 0.540304 0.532506
vt 0.566225 0.604931
vt 0.539114 0.616065
vt 0.566556 0.674297
vt 0.539114 0.616065
vt 0.566225 0.604931
vt 0.539114 0.616065
vt 0.566556 0.674297
vt 0.535959 0.683703
vt 0.561967 0.450658
vt 0.533871 0.382604
vt 0.563086 0.395731
vt 0.599035 0.401915
vt 0.561967 0.450658
vt 0.563086 0.395731
vt 0.561967 0.450658
vt 0.599035 0.401915
vt 0.647353 0.449738
vt 0.647353 0.449738
vt 0.566093 0.532872
vt 0.561967 0.450658
vt 0.566093 0.532872
vt 0.647353 0.449738
vt 0.674095 0.530539
vt 0.661514 0.606740
vt 0.566093 0.532872
vt 0.674095 0.530539
vt 0.566093 0.532872
vt 0.661514 0.606740
vt 0.566225 0.604931
vt 0.630720 0.666493
vt 0.566225 0.604931
vt 0.661514 0.606740
vt 0.566225 0.604931
vt 0.630720 0.666493
vt 0.566556 0.674297
vt 0.682813 0.446292
vt 0.647353 0.449738
vt 0.599035 0.401915
vt 0.682813 0.446292
vt 0.674095 0.530539
vt 0.647353 0.449738
vt 0.674095 0.530539
vt 0.682813 0.446292
vt 0.725451 0.529959
vt 0.724380 0.606938
vt 0.674095 0.530539
vt 0.725451 0.529959
vt 0.674095 0.530539
vt 0.724380 0.606938
vt 0.661514 0.606740
vt 0.630720 0.666493
vt 0.661514 0.606740
vt 0.724380 0.606938
vn 0.166727 -0.667937 0.725302
vn 0.166727 -0.667937 0.725302
vn 0.166727 -0.667937 0.725302
vn 0.166971 -0.674407 0.719233
vn 0.166971 -0.674407 0.719233
vn 0.166971 -0.674406 0.719233
vn -0.753092 -0.278006 0.596293
vn -0.753092 -0.278006 0.596293
vn -0.753092 -0.278006 0.596293
vn -0.723436 -0.197568 0.661519
vn -0.723436 -0.197568 0.661519
vn -0.723436 -0.197568 0.661519
vn -0.858709 -0.099704 -0.502670
vn -0.858709 -0.099704 -0.502670
vn -0.858709 -0.099704 -0.502670
vn -0.806099 -0.251906 -0.535489
vn -0.806099 -0.251906 -0.535489
vn -0.806099 -0.251906 -0.535489
vn -0.258666 -0.404352 -0.877264
vn -0.258666 -0.404352 -0.877264
vn -0.258666 -0.404352 -0.877264
vn -0.221348 -0.502389 -0.835829
vn -0.221348 -0.502389 -0.835829
vn -0.221348 -0.502389 -0.835829
vn 0.604598 0.341865 0.719437
vn 0.604597 0.341865 0.719438
vn 0.604598 0.341865 0.719437
vn -0.427258 0.583793 0.690388
vn -0.427258 0.583793 0.690388
vn -0.427258 0.583793 0.690388
vn -0.397074 0.608102 0.687419
vn -0.397074 0.608102 0.687419
vn -0.397074 0.608102 0.687419
vn -0.510192 0.732957 -0.449975
vn -0.510192 0.732957 -0.449975
vn -0.510192 0.732957 -0.449975
vn -0.492813 0.755840 -0.431094
vn -0.492813 0.755840 -0.431094
vn -0.492813 0.755840 -0.431094
vn 0.091845 0.646236 -0.757590
vn 0.091845 0.646236 -0.757590
vn 0.091845 0.646236 -0.757590
vn 0.105011 0.460990 -0.881170
vn 0.105011 0.460990 -0.881170
vn 0.105011 0.460990 -0.881170
vn 0.613417 0.355699 0.705123
vn 0.613417 0.355699 0.705123
vn 0.613417 0.355699 0.705123
vn 0.467075 -0.393831 0.791668
vn 0.467075 -0.393831 0.791668
vn 0.467075 -0.393831 0.791668
vn 0.364390 -0.236085 0.900824
vn 0.364390 -0.236086 0.900824
vn 0.364390 -0.236086 0.900824
vn -0.672713 0.192355 0.714463
vn -0.672713 0.192355 0.714463
vn -0.672713 0.192355 0.714463
vn -0.680647 0.254341 0.687044
vn -0.680647 0.254341 0.687044
vn -0.680647 0.254341 0.687044
vn -0.779494 0.424159 -0.460953
vn -0.779494 0.424159 -0.460953
vn -0.779494 0.424159 -0.460953
vn -0.765815 0.346868 -0.541489
vn -0.765815 0.346868 -0.541489
vn -0.765815 0.346868 -0.541489
vn -0.092858 0.129805 -0.987182
vn -0.092858 0.129805 -0.987182
vn -0.092858 0.129805 -0.987182
vn -0.107255 0.178081 -0.978153
vn -0.107255 0.178081 -0.978153
vn -0.107255 0.178081 -0.978153
vn 0.264470 -0.311813 0.912594
vn 0.264470 -0.311813 0.912594
vn 0.264471 -0.311813 0.912594
vn -0.728990 0.179278 0.660631
vn -0.728990 0.179278 0.660631
vn -0.728990 0.179278 0.660631
vn -0.572509 0.514671 0.638237
vn -0.572509 0.514671 0.638237
vn -0.572509 0.514671 0.638237
vn -0.726783 0.586865 -0.356899
vn -0.726783 0.586865 -0.356899
vn -0.726783 0.586865 -0.356899
vn -0.793819 0.398332 -0.459546
vn -0.793819 0.398332 -0.459546
vn -0.793819 0.398332 -0.459546
vn -0.196016 0.060996 -0.978702
vn -0.196016 0.060996 -0.978702
vn -0.196016 0.060996 -0.978702
s off
g model3:abta273_2_Mesh_011__n_abta273_2_Mesh_011__n__null_ polySurface18
usemtl model3:initialShadingGroup
f 27/91/91 28/92/92 29/93/93
f 28/94/94 27/95/95 30/96/96
f 31/97/97 28/98/98 30/99/99
f 28/100/100 31/101/101 32/102/102
f 33/103/103 32/104/104 31/105/105
f 32/106/106 33/107/107 34/108/108
f 35/109/109 34/110/110 33/111/111
f 34/112/112 35/113/113 36/114/114
f 27/115/115 37/116/116 30/117/117
f 38/118/118 30/119/119 37/120/120
f 30/121/121 38/122/122 31/123/123
f 39/124/124 31/125/125 38/126/126
f 31/127/127 39/128/128 33/129/129
f 40/130/130 33/131/131 39/132/132
f 33/133/133 40/134/134 35/135/135
f 37/136/136 27/137/137 41/138/138
f 42/139/139 37/140/140 41/141/141
f 37/142/142 42/143/143 43/144/144
f 43/145/145 38/146/146 37/147/147
f 38/148/148 43/149/149 44/150/150
f 45/151/151 38/152/152 44/153/153
f 38/154/154 45/155/155 39/156/156
f 46/157/157 39/158/158 45/159/159
f 39/160/160 46/161/161 40/162/162
f 47/163/163 43/164/164 42/165/165
f 47/166/166 44/167/167 43/168/168
f 44/169/169 47/170/170 48/171/171
f 49/172/172 44/173/173 48/174/174
f 44/175/175 49/176/176 45/177/177
f 46/178/178 45/179/179 49/180/180
g default
v -1.954286 15.653584 -2.056011
v -1.646030 15.546457 -1.626918
v -1.854147 15.489063 -0.635478
v -3.464037 16.013098 -1.011991
v -2.812912 15.883836 -1.975394
v -2.640611 15.620674 -0.138480
vt 0.679034 0.160861
vt 0.666097 0.142974
vt 0.674647 0.102287
vt 0.679034 0.160861
vt 0.674647 0.102287
vt 0.743547 0.119571
vt 0.679034 0.160861
vt 0.743547 0.119571
vt 0.715524 0.158399
vt 0.743547 0.119571
vt 0.674647 0.102287
vt 0.707630 0.082448
vn -0.201320 -0.974543 -0.098676
vn -0.201320 -0.974543 -0.098676
vn -0.201320 -0.974543 -0.098676
vn -0.289176 -0.953037 -0.089992
vn -0.289176 -0.953037 -0.089992
vn -0.289176 -0.953037 -0.089992
vn -0.262948 -0.963594 -0.048428
vn -0.262948 -0.963594 -0.048428
vn -0.262948 -0.963594 -0.048428
vn -0.268006 -0.947733 -0.173130
vn -0.268006 -0.947733 -0.173130
vn -0.268006 -0.947733 -0.173130
s off
g model3:abta273_2_Mesh_011__n_abta273_2_Mesh_011__n__null_ polySurface15
usemtl model3:initialShadingGroup
f 50/181/181 51/182/182 52/183/183
f 50/184/184 52/185/185 53/186/186
f 50/187/187 53/188/188 54/189/189
f 53/190/190 52/191/191 55/192/192
g default
v -2.281302 16.604217 -0.052433
v -1.854147 15.489063 -0.635478
v -1.508900 16.466088 -0.550017
v -2.640611 15.620674 -0.138480
v -3.236838 16.996671 -0.926354
v -3.464037 16.013098 -1.011991
v -2.503569 16.871989 -2.012796
v -2.812912 15.883836 -1.975394
v -1.684958 16.654536 -2.092297
v -1.954286 15.653584 -2.056011
v -1.371975 16.525479 -1.541252
v -1.646030 15.546457 -1.626918
v -1.508900 16.466088 -0.550017
v -1.854147 15.489063 -0.635478
vt 0.983106 0.211222
vt 0.829280 0.075379
vt 0.982287 0.072421
vt 0.829280 0.075379
vt 0.983106 0.211222
vt 0.832460 0.213957
vt 0.979872 0.379887
vt 0.832460 0.213957
vt 0.983106 0.211222
vt 0.832460 0.213957
vt 0.979872 0.379887
vt 0.832626 0.376442
vt 0.967389 0.569652
vt 0.832626 0.376442
vt 0.979872 0.379887
vt 0.832626 0.376442
vt 0.967389 0.569652
vt 0.818912 0.544800
vt 0.956435 0.707030
vt 0.818912 0.544800
vt 0.967389 0.569652
vt 0.818912 0.544800
vt 0.956435 0.707030
vt 0.807150 0.685058
vt 0.945762 0.796405
vt 0.807150 0.685058
vt 0.956435 0.707030
vt 0.807150 0.685058
vt 0.945762 0.796405
vt 0.795367 0.768624
vt 0.919486 0.931067
vt 0.795367 0.768624
vt 0.945762 0.796405
vt 0.795367 0.768624
vt 0.919486 0.931067
vt 0.771284 0.898606
vn 0.493120 -0.247210 0.834098
vn 0.493120 -0.247210 0.834098
vn 0.493120 -0.247210 0.834098
vn 0.486739 -0.251017 0.836705
vn 0.486739 -0.251017 0.836705
vn 0.486739 -0.251017 0.836705
vn -0.628545 0.163089 0.760482
vn -0.628545 0.163089 0.760482
vn -0.628545 0.163089 0.760482
vn -0.701054 0.100471 0.705995
vn -0.701054 0.100471 0.705995
vn -0.701054 0.100471 0.705995
vn -0.793637 0.232283 -0.562304
vn -0.793637 0.232283 -0.562304
vn -0.793637 0.232283 -0.562304
vn -0.792569 0.226689 -0.566080
vn -0.792569 0.226689 -0.566080
vn -0.792569 0.226689 -0.566080
vn -0.098460 -0.006843 -0.995117
vn -0.098460 -0.006843 -0.995117
vn -0.098460 -0.006843 -0.995117
vn -0.096185 -0.010201 -0.995311
vn -0.096185 -0.010201 -0.995311
vn -0.096185 -0.010201 -0.995311
vn 0.819134 -0.239304 -0.521299
vn 0.819134 -0.239304 -0.521299
vn 0.819134 -0.239304 -0.521299
vn 0.780816 -0.165866 -0.602341
vn 0.780816 -0.165866 -0.602341
vn 0.780816 -0.165866 -0.602341
vn 0.953913 -0.277103 0.115166
vn 0.953913 -0.277103 0.115166
vn 0.953913 -0.277103 0.115166
vn 0.923583 -0.341590 0.174098
vn 0.923583 -0.341590 0.174098
vn 0.923583 -0.341590 0.174098
s off
g model3:abta273_2_Mesh_011__n_abta273_2_Mesh_011__n__null_ polySurface16
usemtl model3:initialShadingGroup
f 56/193/193 57/194/194 58/195/195
f 57/196/196 56/197/197 59/198/198
f 60/199/199 59/200/200 56/201/201
f 59/202/202 60/203/203 61/204/204
f 62/205/205 61/206/206 60/207/207
f 61/208/208 62/209/209 63/210/210
f 64/211/211 63/212/212 62/213/213
f 63/214/214 64/215/215 65/216/216
f 66/217/217 65/218/218 64/219/219
f 65/220/220 66/221/221 67/222/222
f 68/223/223 67/224/224 66/225/225
f 67/226/226 68/227/227 69/228/228
