# This file uses centimeters as units for non-parametric coordinates.

mtllib button.mtl
g default
v -3.387795 25.448618 0.316535
v -3.725850 24.702639 0.289790
v -3.704037 24.039064 0.770054
v -2.519129 25.647547 1.540636
v -2.887950 25.840015 0.834670
v -2.835371 24.237993 1.994125
v -2.497346 24.983973 2.020899
v -3.335216 23.846596 1.476019
vt 0.988187 0.539797
vt 0.924662 0.603986
vt 0.834518 0.604333
vt 0.923920 0.385666
vt 0.987879 0.449366
vt 0.770252 0.450202
vt 0.833776 0.386013
vt 0.770559 0.540633
vn -0.791928 0.340709 0.506722
vn -0.791928 0.340709 0.506722
vn -0.791928 0.340709 0.506722
vn -0.791979 0.340698 0.506650
vn -0.791979 0.340698 0.506650
vn -0.791979 0.340698 0.506650
vn -0.791975 0.340713 0.506646
vn -0.791975 0.340713 0.506646
vn -0.791975 0.340713 0.506646
vn -0.791975 0.340690 0.506661
vn -0.791975 0.340690 0.506661
vn -0.791975 0.340690 0.506661
vn -0.791986 0.340688 0.506646
vn -0.791986 0.340688 0.506646
vn -0.791986 0.340688 0.506646
vn -0.791965 0.340736 0.506646
vn -0.791965 0.340736 0.506646
vn -0.791965 0.340736 0.506646
s off
g polySurface22 model:abta272_2_Mesh_009__n_abta272_2_Mesh_009__n__null_
usemtl model:initialShadingGroup
f 1/1/1 2/2/2 3/3/3
f 1/1/4 3/3/5 4/4/6
f 1/1/7 4/4/8 5/5/9
f 4/4/10 3/3/11 6/6/12
f 4/4/13 6/6/14 7/7/15
f 6/6/16 3/3/17 8/8/18
g default
v -3.725850 24.702639 0.289790
v -3.349102 23.886347 0.542971
v -3.704037 24.039064 0.770054
v -3.370885 24.549948 0.062708
v -3.387795 25.448618 0.316535
v -3.032860 25.295927 0.089482
v -2.887950 25.840015 0.834670
v -2.533015 25.687326 0.607588
v -2.519129 25.647547 1.540636
v -2.164194 25.494858 1.313553
v -2.497346 24.983973 2.020899
v -2.142411 24.831284 1.793817
v -2.835371 24.237993 1.994125
v -2.480436 24.085302 1.767072
v -3.335216 23.846596 1.476019
v -2.980281 23.693907 1.248937
vt 0.924662 0.603986
vt 0.834437 0.604448
vt 0.834518 0.604333
vt 0.834437 0.604448
vt 0.924662 0.603986
vt 0.924581 0.604102
vt 0.988187 0.539797
vt 0.924581 0.604102
vt 0.924662 0.603986
vt 0.924581 0.604102
vt 0.988187 0.539797
vt 0.988105 0.539912
vt 0.987879 0.449366
vt 0.988105 0.539912
vt 0.988187 0.539797
vt 0.988105 0.539912
vt 0.987879 0.449366
vt 0.987798 0.449481
vt 0.923920 0.385666
vt 0.987798 0.449481
vt 0.987879 0.449366
vt 0.987798 0.449481
vt 0.923920 0.385666
vt 0.923839 0.385782
vt 0.833776 0.386013
vt 0.923839 0.385782
vt 0.923920 0.385666
vt 0.923839 0.385782
vt 0.833776 0.386013
vt 0.833695 0.386128
vt 0.770252 0.450202
vt 0.833695 0.386128
vt 0.833776 0.386013
vt 0.833695 0.386128
vt 0.770252 0.450202
vt 0.770171 0.450317
vt 0.770559 0.540633
vt 0.770171 0.450317
vt 0.770252 0.450202
vt 0.770171 0.450317
vt 0.770559 0.540633
vt 0.770478 0.540748
vt 0.834518 0.604333
vt 0.770478 0.540748
vt 0.770559 0.540633
vt 0.770478 0.540748
vt 0.834518 0.604333
vt 0.834437 0.604448
vn -0.610018 -0.477643 -0.632245
vn -0.610018 -0.477643 -0.632245
vn -0.610018 -0.477643 -0.632245
vn -0.609964 -0.477635 -0.632305
vn -0.609964 -0.477635 -0.632305
vn -0.609964 -0.477635 -0.632305
vn -0.450118 0.234866 -0.861529
vn -0.450118 0.234866 -0.861529
vn -0.450118 0.234866 -0.861529
vn -0.450091 0.234871 -0.861542
vn -0.450091 0.234871 -0.861542
vn -0.450091 0.234871 -0.861542
vn -0.026560 0.809802 -0.586101
vn -0.026560 0.809802 -0.586101
vn -0.026560 0.809802 -0.586102
vn -0.026603 0.809806 -0.586094
vn -0.026603 0.809806 -0.586094
vn -0.026603 0.809806 -0.586094
vn 0.412531 0.910357 0.032672
vn 0.412531 0.910357 0.032672
vn 0.412531 0.910357 0.032672
vn 0.412531 0.910357 0.032672
vn 0.412531 0.910357 0.032672
vn 0.412531 0.910357 0.032672
vn 0.609994 0.477635 0.632276
vn 0.609994 0.477635 0.632276
vn 0.609994 0.477635 0.632276
vn 0.609994 0.477635 0.632275
vn 0.609994 0.477635 0.632275
vn 0.609994 0.477635 0.632275
vn 0.450136 -0.234891 0.861512
vn 0.450136 -0.234891 0.861512
vn 0.450136 -0.234891 0.861512
vn 0.450103 -0.234843 0.861543
vn 0.450103 -0.234843 0.861543
vn 0.450103 -0.234843 0.861543
vn 0.026573 -0.809791 0.586116
vn 0.026573 -0.809791 0.586116
vn 0.026573 -0.809791 0.586116
vn 0.026591 -0.809818 0.586078
vn 0.026591 -0.809818 0.586078
vn 0.026591 -0.809818 0.586078
vn -0.412529 -0.910358 -0.032674
vn -0.412530 -0.910358 -0.032674
vn -0.412529 -0.910358 -0.032674
vn -0.412563 -0.910345 -0.032617
vn -0.412563 -0.910345 -0.032617
vn -0.412563 -0.910345 -0.032617
s off
g model:abta272_2_Mesh_009__n_abta272_2_Mesh_009__n__null_ polySurface43
usemtl model:initialShadingGroup
f 9/9/19 10/10/20 11/11/21
f 10/12/22 9/13/23 12/14/24
f 13/15/25 12/16/26 9/17/27
f 12/18/28 13/19/29 14/20/30
f 15/21/31 14/22/32 13/23/33
f 14/24/34 15/25/35 16/26/36
f 17/27/37 16/28/38 15/29/39
f 16/30/40 17/31/41 18/32/42
f 19/33/43 18/34/44 17/35/45
f 18/36/46 19/37/47 20/38/48
f 21/39/49 20/40/50 19/41/51
f 20/42/52 21/43/53 22/44/54
f 23/45/55 22/46/56 21/47/57
f 22/48/58 23/49/59 24/50/60
f 11/51/61 24/52/62 23/53/63
f 24/54/64 11/55/65 10/56/66
g default
v -2.980281 23.693907 1.248937
v -3.349102 23.886347 0.542971
v -3.370885 24.549948 0.062708
v -2.142411 24.831284 1.793817
v -2.480436 24.085302 1.767072
v -2.533015 25.687326 0.607588
v -2.164194 25.494858 1.313553
v -3.032860 25.295927 0.089482
vt 0.770478 0.540748
vt 0.834437 0.604448
vt 0.924581 0.604102
vt 0.833695 0.386128
vt 0.770171 0.450317
vt 0.987798 0.449481
vt 0.923839 0.385782
vt 0.988105 0.539912
vn 0.792005 -0.340663 -0.506633
vn 0.792005 -0.340663 -0.506633
vn 0.792005 -0.340663 -0.506633
vn 0.791976 -0.340703 -0.506652
vn 0.791976 -0.340703 -0.506652
vn 0.791976 -0.340703 -0.506652
vn 0.791974 -0.340702 -0.506656
vn 0.791973 -0.340702 -0.506656
vn 0.791974 -0.340702 -0.506656
vn 0.791975 -0.340703 -0.506652
vn 0.791975 -0.340703 -0.506652
vn 0.791975 -0.340703 -0.506652
vn 0.791988 -0.340686 -0.506645
vn 0.791988 -0.340686 -0.506645
vn 0.791988 -0.340686 -0.506645
vn 0.791963 -0.340675 -0.506690
vn 0.791963 -0.340675 -0.506690
vn 0.791963 -0.340675 -0.506690
s off
g model:abta272_2_Mesh_009__n_abta272_2_Mesh_009__n__null_ polySurface23
usemtl model:initialShadingGroup
f 25/57/67 26/58/68 27/59/69
f 25/57/70 27/59/71 28/60/72
f 25/57/73 28/60/74 29/61/75
f 28/60/76 27/59/77 30/62/78
f 28/60/79 30/62/80 31/63/81
f 30/62/82 27/59/83 32/64/84
g default
v 3.387795 25.448618 0.316535
v 2.887980 25.840015 0.834670
v 2.519129 25.647547 1.540636
v 3.704037 24.039064 0.770054
v 3.725850 24.702639 0.289790
v 2.835371 24.237993 1.994125
v 3.335216 23.846596 1.476019
v 2.497346 24.983973 2.020899
vt 0.988187 0.539797
vt 0.987879 0.449366
vt 0.923920 0.385666
vt 0.988187 0.539797
vt 0.923920 0.385666
vt 0.834518 0.604333
vt 0.988187 0.539797
vt 0.834518 0.604333
vt 0.924662 0.603986
vt 0.834518 0.604333
vt 0.923920 0.385666
vt 0.770252 0.450202
vt 0.834518 0.604333
vt 0.770252 0.450202
vt 0.770559 0.540633
vt 0.770252 0.450202
vt 0.923920 0.385666
vt 0.833776 0.386013
vn 0.791989 0.340644 0.506670
vn 0.791989 0.340644 0.506670
vn 0.791989 0.340644 0.506670
vn 0.791979 0.340698 0.506650
vn 0.791979 0.340698 0.506650
vn 0.791979 0.340698 0.506650
vn 0.791928 0.340709 0.506722
vn 0.791928 0.340709 0.506722
vn 0.791928 0.340709 0.506722
vn 0.791975 0.340690 0.506662
vn 0.791975 0.340690 0.506662
vn 0.791975 0.340690 0.506662
vn 0.791965 0.340737 0.506646
vn 0.791965 0.340737 0.506646
vn 0.791965 0.340737 0.506646
vn 0.791986 0.340688 0.506646
vn 0.791986 0.340688 0.506646
vn 0.791986 0.340688 0.506646
s off
g model:abta272_2_Mesh_009__n_abta272_2_Mesh_009__n__null_ polySurface29
usemtl model:initialShadingGroup
f 33/65/85 34/66/86 35/67/87
f 33/68/88 35/69/89 36/70/90
f 33/71/91 36/72/92 37/73/93
f 36/74/94 35/75/95 38/76/96
f 36/77/97 38/78/98 39/79/99
f 38/80/100 35/81/101 40/82/102
g default
v 2.980281 23.693907 1.248937
v 2.480436 24.085302 1.767072
v 2.142411 24.831284 1.793817
v 3.370885 24.549948 0.062708
v 3.349102 23.886347 0.542971
v 2.533015 25.687326 0.607588
v 3.032860 25.295927 0.089482
v 2.164194 25.494858 1.313553
vt 0.770478 0.540748
vt 0.770171 0.450317
vt 0.833695 0.386128
vt 0.770478 0.540748
vt 0.833695 0.386128
vt 0.924581 0.604102
vt 0.770478 0.540748
vt 0.924581 0.604102
vt 0.834437 0.604448
vt 0.924581 0.604102
vt 0.833695 0.386128
vt 0.987798 0.449481
vt 0.924581 0.604102
vt 0.987798 0.449481
vt 0.988105 0.539912
vt 0.987798 0.449481
vt 0.833695 0.386128
vt 0.923839 0.385782
vn -0.791974 -0.340702 -0.506655
vn -0.791974 -0.340702 -0.506655
vn -0.791974 -0.340702 -0.506655
vn -0.791976 -0.340703 -0.506652
vn -0.791976 -0.340703 -0.506652
vn -0.791976 -0.340703 -0.506652
vn -0.792005 -0.340663 -0.506633
vn -0.792005 -0.340663 -0.506633
vn -0.792005 -0.340663 -0.506633
vn -0.791975 -0.340703 -0.506652
vn -0.791975 -0.340703 -0.506652
vn -0.791975 -0.340703 -0.506652
vn -0.791963 -0.340675 -0.506690
vn -0.791963 -0.340675 -0.506690
vn -0.791963 -0.340675 -0.506690
vn -0.791988 -0.340686 -0.506644
vn -0.791988 -0.340686 -0.506644
vn -0.791988 -0.340686 -0.506644
s off
g model:abta272_2_Mesh_009__n_abta272_2_Mesh_009__n__null_ polySurface30
usemtl model:initialShadingGroup
f 41/83/103 42/84/104 43/85/105
f 41/86/106 43/87/107 44/88/108
f 41/89/109 44/90/110 45/91/111
f 44/92/112 43/93/113 46/94/114
f 44/95/115 46/96/116 47/97/117
f 46/98/118 43/99/119 48/100/120
g default
v 3.349102 23.886347 0.542971
v 3.725850 24.702639 0.289790
v 3.704037 24.039064 0.770054
v 3.370885 24.549948 0.062708
v 3.387795 25.448618 0.316535
v 3.032860 25.295927 0.089482
v 2.887980 25.840015 0.834670
v 2.533015 25.687326 0.607588
v 2.519129 25.647547 1.540636
v 2.980281 23.693907 1.248937
v 3.335216 23.846596 1.476019
v 2.480436 24.085302 1.767072
v 2.835371 24.237993 1.994125
v 2.142411 24.831284 1.793817
v 2.497346 24.983973 2.020899
v 2.164194 25.494858 1.313553
vt 0.834437 0.604448
vt 0.924662 0.603986
vt 0.834518 0.604333
vt 0.924662 0.603986
vt 0.834437 0.604448
vt 0.924581 0.604102
vt 0.924581 0.604102
vt 0.988187 0.539797
vt 0.924662 0.603986
vt 0.988187 0.539797
vt 0.924581 0.604102
vt 0.988105 0.539912
vt 0.988105 0.539912
vt 0.987879 0.449366
vt 0.988187 0.539797
vt 0.987879 0.449366
vt 0.988105 0.539912
vt 0.987798 0.449481
vt 0.987798 0.449481
vt 0.923920 0.385666
vt 0.987879 0.449366
vt 0.834518 0.604333
vt 0.770478 0.540748
vt 0.834437 0.604448
vt 0.770478 0.540748
vt 0.834518 0.604333
vt 0.770559 0.540633
vt 0.770559 0.540633
vt 0.770171 0.450317
vt 0.770478 0.540748
vt 0.770171 0.450317
vt 0.770559 0.540633
vt 0.770252 0.450202
vt 0.770252 0.450202
vt 0.833695 0.386128
vt 0.770171 0.450317
vt 0.833695 0.386128
vt 0.770252 0.450202
vt 0.833776 0.386013
vt 0.833776 0.386013
vt 0.923839 0.385782
vt 0.833695 0.386128
vt 0.923839 0.385782
vt 0.833776 0.386013
vt 0.923920 0.385666
vt 0.923920 0.385666
vt 0.987798 0.449481
vt 0.923839 0.385782
vn 0.610019 -0.477643 -0.632245
vn 0.610019 -0.477643 -0.632245
vn 0.610019 -0.477643 -0.632245
vn 0.609963 -0.477635 -0.632305
vn 0.609963 -0.477635 -0.632305
vn 0.609963 -0.477635 -0.632305
vn 0.450118 0.234867 -0.861529
vn 0.450118 0.234867 -0.861529
vn 0.450118 0.234867 -0.861529
vn 0.450091 0.234871 -0.861542
vn 0.450091 0.234871 -0.861542
vn 0.450091 0.234871 -0.861541
vn 0.026560 0.809801 -0.586103
vn 0.026560 0.809801 -0.586103
vn 0.026560 0.809801 -0.586103
vn 0.026602 0.809805 -0.586095
vn 0.026602 0.809805 -0.586095
vn 0.026602 0.809805 -0.586095
vn -0.412503 0.910370 0.032672
vn -0.412503 0.910370 0.032672
vn -0.412503 0.910370 0.032672
vn 0.412563 -0.910345 -0.032617
vn 0.412563 -0.910345 -0.032617
vn 0.412563 -0.910345 -0.032617
vn 0.412530 -0.910358 -0.032674
vn 0.412529 -0.910358 -0.032674
vn 0.412529 -0.910358 -0.032674
vn -0.026591 -0.809818 0.586079
vn -0.026591 -0.809818 0.586079
vn -0.026591 -0.809818 0.586079
vn -0.026573 -0.809791 0.586116
vn -0.026573 -0.809791 0.586116
vn -0.026573 -0.809791 0.586116
vn -0.450103 -0.234843 0.861543
vn -0.450103 -0.234843 0.861543
vn -0.450103 -0.234843 0.861543
vn -0.450136 -0.234891 0.861513
vn -0.450136 -0.234891 0.861513
vn -0.450136 -0.234891 0.861513
vn -0.609994 0.477635 0.632275
vn -0.609994 0.477635 0.632275
vn -0.609994 0.477635 0.632275
vn -0.609994 0.477634 0.632276
vn -0.609994 0.477634 0.632276
vn -0.609994 0.477634 0.632276
vn -0.412531 0.910357 0.032672
vn -0.412531 0.910357 0.032672
vn -0.412531 0.910357 0.032672
s off
g model:abta272_2_Mesh_009__n_abta272_2_Mesh_009__n__null_ polySurface44
usemtl model:initialShadingGroup
f 49/101/121 50/102/122 51/103/123
f 50/104/124 49/105/125 52/106/126
f 52/107/127 53/108/128 50/109/129
f 53/110/130 52/111/131 54/112/132
f 54/113/133 55/114/134 53/115/135
f 55/116/136 54/117/137 56/118/138
f 56/119/139 57/120/140 55/121/141
f 51/122/142 58/123/143 49/124/144
f 58/125/145 51/126/146 59/127/147
f 59/128/148 60/129/149 58/130/150
f 60/131/151 59/132/152 61/133/153
f 61/134/154 62/135/155 60/136/156
f 62/137/157 61/138/158 63/139/159
f 63/140/160 64/141/161 62/142/162
f 64/143/163 63/144/164 57/145/165
f 57/146/166 56/147/167 64/148/168
