# This file uses centimeters as units for non-parametric coordinates.

mtllib face.mtl
g default
v 0.000029 20.573706 2.460443
v 0.000029 20.851372 2.379533
v -0.469636 20.685324 2.184627
v 0.000029 21.349895 2.483313
v -1.203227 21.578417 2.175555
v -1.115124 20.553450 1.971079
v -1.050420 20.173971 2.095790
v 0.000029 20.312775 2.681096
v 0.000029 19.759792 2.192407
v -0.937393 19.717281 1.778815
v 0.000029 19.101650 1.391880
v -1.244122 22.351816 2.461001
v -2.165603 22.389364 1.839732
v -2.048701 21.643444 1.529891
v -1.846808 20.565809 1.403682
v -1.763255 20.142912 1.548092
v 0.000029 22.066607 2.701852
v 0.000029 22.992697 2.779796
v -1.239073 23.071522 2.491151
v -2.163372 23.071522 1.856995
v -2.485691 22.332823 1.108695
v -2.367555 21.641537 0.985011
v -2.092913 20.625641 0.945143
v 0.000029 24.138264 2.476854
v -1.127631 24.108377 2.197456
v -2.023042 24.017193 1.579858
v -2.488362 23.000769 1.101737
v -2.577815 22.873268 0.024866
v -2.568567 22.148310 -0.184337
v -2.438748 21.548031 -0.260198
v 0.000029 25.142797 1.724738
v -0.986068 24.996538 1.538757
v -1.847512 24.652935 1.210126
v -2.404428 23.874075 0.544792
v -2.202565 20.749384 -0.292873
v -1.932561 20.134310 0.945789
v -1.340181 19.692680 1.441230
v -0.857863 19.411875 1.377407
v 0.000029 19.008528 0.973943
v -1.423205 19.855881 -0.030649
v -1.469913 19.683140 0.931903
v -0.832380 19.300901 0.934604
v -0.747008 19.414927 0.160381
v 0.000029 19.105320 0.412007
v 0.000029 19.198971 -0.207589
v -0.616865 19.656158 -0.865437
v 0.000029 20.573706 2.460443
v 0.469724 20.685324 2.184627
v 0.000029 20.851372 2.379533
v 1.050508 20.173971 2.095820
v 1.115213 20.553450 1.971079
v 1.203286 21.578417 2.175555
v 0.000029 21.349895 2.483313
v 0.000029 20.312775 2.681096
v 0.000029 19.759792 2.192407
v 0.937451 19.717281 1.778815
v 1.763343 20.142912 1.548092
v 1.846866 20.565809 1.403682
v 2.048789 21.643444 1.529891
v 2.165662 22.389364 1.839732
v 1.244181 22.351816 2.460971
v 0.000029 22.066607 2.701852
v 0.000029 19.101650 1.391880
v 0.857921 19.411875 1.377407
v 1.340240 19.692680 1.441230
v 1.932649 20.134310 0.945789
v 2.093001 20.625641 0.945143
v 2.367643 21.641537 0.985011
v 2.485749 22.332823 1.108695
v 0.000029 19.008528 0.973943
v 0.832468 19.300901 0.934604
v 1.469972 19.683140 0.931903
v 1.423293 19.855881 -0.030649
v 2.202623 20.749384 -0.292873
v 2.438806 21.548031 -0.260198
v 2.568626 22.148310 -0.184337
v 0.747066 19.414927 0.160381
v 0.616865 19.656158 -0.865437
v 0.000029 19.105320 0.412007
v 0.000029 19.198971 -0.207589
v 2.577874 22.873268 0.024866
v 2.488450 23.000769 1.101737
v 2.163460 23.071522 1.856995
v 1.239132 23.071522 2.491151
v 0.000029 22.992697 2.779796
v 2.404487 23.874075 0.544792
v 2.023130 24.017193 1.579858
v 1.127719 24.108377 2.197456
v 0.000029 24.138264 2.476854
v 1.847600 24.652935 1.210126
v 0.986156 24.996538 1.538757
v 0.000029 25.142797 1.724738
vt 0.499989 0.338443
vt 0.499989 0.386195
vt 0.425147 0.355912
vt 0.499989 0.459901
vt 0.309870 0.495661
vt 0.323712 0.335275
vt 0.333880 0.275897
vt 0.499989 0.300694
vt 0.499989 0.216813
vt 0.353497 0.210745
vt 0.499989 0.106268
vt 0.303445 0.616681
vt 0.152890 0.622557
vt 0.173040 0.505837
vt 0.207845 0.337212
vt 0.217920 0.269466
vt 0.499989 0.572053
vt 0.499989 0.716967
vt 0.304238 0.729300
vt 0.153273 0.729300
vt 0.059695 0.613710
vt 0.093028 0.505541
vt 0.135979 0.347088
vt 0.499989 0.882928
vt 0.321746 0.879756
vt 0.177462 0.870074
vt 0.072203 0.718233
vt 0.008268 0.698280
vt 0.008268 0.584841
vt 0.008473 0.490910
vt 0.499989 0.989557
vt 0.343993 0.974031
vt 0.207721 0.937559
vt 0.111719 0.854884
vt 0.008323 0.365938
vt 0.152669 0.273823
vt 0.289470 0.200981
vt 0.364728 0.152502
vt 0.499989 0.066459
vt 0.153604 0.122430
vt 0.233840 0.173543
vt 0.364506 0.099257
vt 0.357911 0.037056
vt 0.499989 0.032268
vt 0.499989 0.006902
vt 0.102475 0.006711
vt 0.499992 0.338443
vt 0.574834 0.355912
vt 0.499992 0.386195
vt 0.666101 0.275897
vt 0.676269 0.335275
vt 0.690111 0.495661
vt 0.499992 0.459901
vt 0.499992 0.300694
vt 0.499992 0.216813
vt 0.646485 0.210745
vt 0.782061 0.269466
vt 0.792137 0.337212
vt 0.826942 0.505837
vt 0.847091 0.622557
vt 0.696536 0.616681
vt 0.499992 0.572053
vt 0.499992 0.106268
vt 0.635253 0.152502
vt 0.710511 0.200981
vt 0.847312 0.273823
vt 0.864003 0.347088
vt 0.906953 0.505541
vt 0.940287 0.613710
vt 0.499992 0.066459
vt 0.635475 0.099257
vt 0.766142 0.173543
vt 0.846377 0.122430
vt 0.991658 0.365938
vt 0.991508 0.490910
vt 0.991713 0.584841
vt 0.642070 0.037056
vt 0.897506 0.006711
vt 0.499992 0.032268
vt 0.499992 0.006902
vt 0.991713 0.698280
vt 0.927779 0.718233
vt 0.846708 0.729300
vt 0.695744 0.729300
vt 0.499992 0.716967
vt 0.888262 0.854884
vt 0.822519 0.870074
vt 0.678235 0.879756
vt 0.499992 0.882928
vt 0.792260 0.937559
vt 0.655988 0.974031
vt 0.499992 0.989557
vn -0.445295 0.250489 0.859632
vn -0.445295 0.250489 0.859632
vn -0.445295 0.250489 0.859632
vn -0.316989 -0.193294 0.928523
vn -0.316989 -0.193294 0.928523
vn -0.316989 -0.193294 0.928523
vn -0.280879 -0.221230 0.933897
vn -0.280879 -0.221230 0.933897
vn -0.280879 -0.221230 0.933897
vn -0.267999 -0.210587 0.940122
vn -0.267999 -0.210587 0.940122
vn -0.267999 -0.210587 0.940122
vn -0.348594 0.238453 0.906434
vn -0.348594 0.238453 0.906434
vn -0.348594 0.238453 0.906434
vn -0.418930 0.328767 0.846410
vn -0.418930 0.328766 0.846410
vn -0.418930 0.328767 0.846410
vn -0.454882 0.575039 0.680009
vn -0.454882 0.575039 0.680009
vn -0.454882 0.575039 0.680009
vn -0.313393 -0.628843 0.711576
vn -0.313393 -0.628843 0.711576
vn -0.313393 -0.628843 0.711576
vn -0.302409 -0.592872 0.746359
vn -0.302409 -0.592872 0.746359
vn -0.302409 -0.592872 0.746359
vn -0.238111 -0.750240 0.616800
vn -0.238111 -0.750240 0.616800
vn -0.238111 -0.750240 0.616800
vn -0.293514 -0.344619 0.891677
vn -0.293514 -0.344619 0.891677
vn -0.293514 -0.344619 0.891677
vn -0.539105 -0.316565 0.780482
vn -0.539105 -0.316565 0.780482
vn -0.539105 -0.316565 0.780482
vn -0.577912 -0.388654 0.717611
vn -0.577912 -0.388654 0.717611
vn -0.577912 -0.388654 0.717611
vn -0.603909 -0.205541 0.770095
vn -0.603909 -0.205541 0.770095
vn -0.603909 -0.205541 0.770095
vn -0.602155 -0.203236 0.772078
vn -0.602155 -0.203236 0.772078
vn -0.602155 -0.203236 0.772078
vn -0.604506 0.147862 0.782757
vn -0.604506 0.147862 0.782757
vn -0.604506 0.147862 0.782757
vn -0.606270 0.153092 0.780385
vn -0.606270 0.153092 0.780385
vn -0.606270 0.153092 0.780385
vn -0.481651 -0.577014 0.659597
vn -0.481651 -0.577014 0.659597
vn -0.481651 -0.577014 0.659597
vn -0.244389 -0.282818 0.927517
vn -0.244389 -0.282818 0.927517
vn -0.244389 -0.282818 0.927517
vn -0.207513 -0.082043 0.974786
vn -0.207513 -0.082043 0.974786
vn -0.207513 -0.082043 0.974786
vn -0.229060 -0.039139 0.972625
vn -0.229060 -0.039139 0.972625
vn -0.229060 -0.039139 0.972625
vn -0.565477 -0.030560 0.824198
vn -0.565477 -0.030560 0.824198
vn -0.565477 -0.030560 0.824198
vn -0.559455 -0.019139 0.828640
vn -0.559455 -0.019139 0.828640
vn -0.559455 -0.019139 0.828640
vn -0.915811 -0.007165 0.401546
vn -0.915811 -0.007165 0.401546
vn -0.915811 -0.007165 0.401546
vn -0.864342 -0.302380 0.401844
vn -0.864342 -0.302380 0.401844
vn -0.864343 -0.302380 0.401844
vn -0.839294 -0.231448 0.491952
vn -0.839294 -0.231448 0.491952
vn -0.839294 -0.231448 0.491952
vn -0.842445 -0.215656 0.493740
vn -0.842445 -0.215656 0.493740
vn -0.842445 -0.215656 0.493740
vn -0.866152 -0.251117 0.432113
vn -0.866152 -0.251117 0.432113
vn -0.866152 -0.251117 0.432113
vn -0.881751 -0.013191 0.471531
vn -0.881751 -0.013191 0.471531
vn -0.881751 -0.013191 0.471531
vn -0.204525 0.250255 0.946331
vn -0.204525 0.250255 0.946331
vn -0.204525 0.250255 0.946331
vn -0.237477 0.288280 0.927631
vn -0.237477 0.288280 0.927631
vn -0.237477 0.288280 0.927631
vn -0.564169 0.280590 0.776520
vn -0.564169 0.280590 0.776520
vn -0.564169 0.280590 0.776520
vn -0.537944 0.309604 0.784067
vn -0.537944 0.309604 0.784067
vn -0.537944 0.309604 0.784067
vn -0.899615 0.240342 0.364593
vn -0.899615 0.240342 0.364593
vn -0.899615 0.240343 0.364593
vn -0.918583 0.000443 0.395229
vn -0.918583 0.000443 0.395229
vn -0.918583 0.000443 0.395229
vn -0.996532 -0.003120 0.083149
vn -0.996532 -0.003120 0.083149
vn -0.996532 -0.003120 0.083149
vn -0.997118 -0.032500 0.068548
vn -0.997118 -0.032500 0.068548
vn -0.997118 -0.032500 0.068548
vn -0.979045 -0.183217 0.088896
vn -0.979045 -0.183217 0.088896
vn -0.979045 -0.183217 0.088896
vn -0.972938 -0.219526 0.072110
vn -0.972938 -0.219526 0.072110
vn -0.972938 -0.219526 0.072110
vn -0.961902 -0.262979 0.074742
vn -0.961902 -0.262979 0.074742
vn -0.961902 -0.262979 0.074742
vn -0.209468 0.586049 0.782732
vn -0.209468 0.586049 0.782732
vn -0.209468 0.586049 0.782732
vn -0.233316 0.602974 0.762880
vn -0.233316 0.602974 0.762880
vn -0.233316 0.602974 0.762880
vn -0.481394 0.570339 0.665563
vn -0.481394 0.570339 0.665563
vn -0.481394 0.570339 0.665563
vn -0.516649 0.532549 0.670422
vn -0.516649 0.532549 0.670422
vn -0.516649 0.532549 0.670422
vn -0.877235 0.398171 0.268177
vn -0.877235 0.398171 0.268177
vn -0.877235 0.398171 0.268177
vn -0.913209 0.277859 0.298067
vn -0.913209 0.277859 0.298067
vn -0.913209 0.277859 0.298067
vn -0.988377 0.137009 0.065880
vn -0.988377 0.137009 0.065880
vn -0.988377 0.137009 0.065880
vn -0.956801 -0.285253 0.056232
vn -0.956801 -0.285253 0.056232
vn -0.956801 -0.285253 0.056232
vn -0.949331 -0.309757 0.053121
vn -0.949331 -0.309757 0.053121
vn -0.949331 -0.309757 0.053121
vn -0.917500 -0.299092 0.262178
vn -0.917500 -0.299092 0.262178
vn -0.917500 -0.299092 0.262178
vn -0.688905 -0.695675 0.203585
vn -0.688905 -0.695675 0.203585
vn -0.688905 -0.695675 0.203585
vn -0.488137 -0.607439 0.626689
vn -0.488137 -0.607439 0.626689
vn -0.488137 -0.607439 0.626689
vn -0.381061 -0.770620 0.510821
vn -0.381061 -0.770620 0.510821
vn -0.381061 -0.770620 0.510821
vn -0.294022 -0.787839 0.541166
vn -0.294021 -0.787839 0.541166
vn -0.294022 -0.787839 0.541166
vn -0.335904 -0.919351 0.204845
vn -0.335904 -0.919351 0.204845
vn -0.335904 -0.919351 0.204845
vn -0.714531 -0.676064 -0.179955
vn -0.714531 -0.676064 -0.179955
vn -0.714531 -0.676064 -0.179955
vn -0.691636 -0.704310 -0.159958
vn -0.691636 -0.704310 -0.159958
vn -0.691636 -0.704310 -0.159958
vn -0.682944 -0.706081 0.187180
vn -0.682944 -0.706081 0.187180
vn -0.682944 -0.706081 0.187180
vn -0.509192 -0.848250 0.145588
vn -0.509192 -0.848250 0.145588
vn -0.509192 -0.848250 0.145588
vn -0.475468 -0.859407 0.188016
vn -0.475468 -0.859407 0.188016
vn -0.475468 -0.859407 0.188016
vn -0.332786 -0.919053 0.211176
vn -0.332786 -0.919053 0.211176
vn -0.332786 -0.919053 0.211176
vn -0.319162 -0.931880 -0.172438
vn -0.319162 -0.931880 -0.172438
vn -0.319162 -0.931880 -0.172438
vn -0.331405 -0.929796 -0.160155
vn -0.331405 -0.929796 -0.160155
vn -0.331405 -0.929796 -0.160155
vn -0.338263 -0.930483 -0.140641
vn -0.338263 -0.930483 -0.140641
vn -0.338263 -0.930483 -0.140641
vn -0.383162 -0.887141 -0.257232
vn -0.383162 -0.887141 -0.257232
vn -0.383162 -0.887141 -0.257232
vn -0.612353 -0.661283 -0.433276
vn -0.612353 -0.661283 -0.433276
vn -0.612353 -0.661283 -0.433276
vn -0.475508 -0.840999 -0.258097
vn -0.475508 -0.840999 -0.258097
vn -0.475507 -0.840999 -0.258097
vn -0.502245 -0.846563 -0.176297
vn -0.502245 -0.846563 -0.176297
vn -0.502245 -0.846563 -0.176297
vn -0.505255 -0.843986 -0.180014
vn -0.505255 -0.843986 -0.180014
vn -0.505255 -0.843986 -0.180014
vn 0.445276 0.250494 0.859641
vn 0.445276 0.250495 0.859640
vn 0.445276 0.250495 0.859640
vn 0.418904 0.328785 0.846416
vn 0.418904 0.328785 0.846416
vn 0.418904 0.328785 0.846416
vn 0.348601 0.238515 0.906415
vn 0.348601 0.238515 0.906415
vn 0.348601 0.238515 0.906415
vn 0.268001 -0.210580 0.940123
vn 0.268001 -0.210580 0.940123
vn 0.268001 -0.210580 0.940123
vn 0.280877 -0.221219 0.933901
vn 0.280877 -0.221219 0.933901
vn 0.280877 -0.221219 0.933901
vn 0.316972 -0.193295 0.928529
vn 0.316972 -0.193295 0.928529
vn 0.316972 -0.193295 0.928529
vn 0.454856 0.575047 0.680019
vn 0.454856 0.575047 0.680019
vn 0.454856 0.575047 0.680019
vn 0.313367 -0.628849 0.711583
vn 0.313367 -0.628849 0.711583
vn 0.313367 -0.628849 0.711583
vn 0.302394 -0.592916 0.746330
vn 0.302394 -0.592916 0.746330
vn 0.302394 -0.592916 0.746330
vn 0.481647 -0.577059 0.659560
vn 0.481647 -0.577059 0.659560
vn 0.481647 -0.577059 0.659560
vn 0.606287 0.153141 0.780361
vn 0.606287 0.153141 0.780361
vn 0.606287 0.153141 0.780362
vn 0.604518 0.147897 0.782742
vn 0.604518 0.147897 0.782742
vn 0.604518 0.147897 0.782742
vn 0.602168 -0.203253 0.772063
vn 0.602168 -0.203253 0.772063
vn 0.602168 -0.203253 0.772063
vn 0.603897 -0.205525 0.770109
vn 0.603897 -0.205525 0.770109
vn 0.603897 -0.205525 0.770109
vn 0.577903 -0.388636 0.717628
vn 0.577903 -0.388636 0.717628
vn 0.577903 -0.388636 0.717628
vn 0.539092 -0.316542 0.780500
vn 0.539092 -0.316542 0.780500
vn 0.539092 -0.316542 0.780500
vn 0.293511 -0.344589 0.891689
vn 0.293511 -0.344589 0.891689
vn 0.293511 -0.344589 0.891689
vn 0.244409 -0.282817 0.927512
vn 0.244409 -0.282816 0.927512
vn 0.244409 -0.282816 0.927512
vn 0.238111 -0.750240 0.616800
vn 0.238111 -0.750240 0.616800
vn 0.238111 -0.750240 0.616800
vn 0.294021 -0.787839 0.541167
vn 0.294021 -0.787839 0.541167
vn 0.294021 -0.787839 0.541167
vn 0.381061 -0.770620 0.510821
vn 0.381061 -0.770620 0.510821
vn 0.381061 -0.770620 0.510821
vn 0.488127 -0.607460 0.626678
vn 0.488127 -0.607460 0.626678
vn 0.488127 -0.607460 0.626678
vn 0.688883 -0.695698 0.203579
vn 0.688883 -0.695698 0.203579
vn 0.688883 -0.695698 0.203579
vn 0.917500 -0.299093 0.262178
vn 0.917500 -0.299093 0.262178
vn 0.917500 -0.299093 0.262178
vn 0.881724 -0.013106 0.471583
vn 0.881724 -0.013106 0.471583
vn 0.881724 -0.013106 0.471583
vn 0.866131 -0.251113 0.432158
vn 0.866131 -0.251113 0.432157
vn 0.866131 -0.251113 0.432157
vn 0.842440 -0.215678 0.493738
vn 0.842440 -0.215678 0.493738
vn 0.842440 -0.215678 0.493738
vn 0.839302 -0.231415 0.491955
vn 0.839302 -0.231415 0.491955
vn 0.839302 -0.231415 0.491955
vn 0.864353 -0.302348 0.401846
vn 0.864353 -0.302348 0.401846
vn 0.864353 -0.302348 0.401846
vn 0.335904 -0.919351 0.204845
vn 0.335904 -0.919351 0.204845
vn 0.335904 -0.919351 0.204845
vn 0.332775 -0.919052 0.211199
vn 0.332775 -0.919052 0.211199
vn 0.332775 -0.919052 0.211199
vn 0.475462 -0.859403 0.188047
vn 0.475462 -0.859403 0.188047
vn 0.475462 -0.859403 0.188047
vn 0.509209 -0.848239 0.145593
vn 0.509209 -0.848239 0.145593
vn 0.509209 -0.848239 0.145593
vn 0.682923 -0.706103 0.187176
vn 0.682923 -0.706103 0.187176
vn 0.682923 -0.706103 0.187176
vn 0.691616 -0.704334 -0.159940
vn 0.691616 -0.704334 -0.159940
vn 0.691616 -0.704334 -0.159940
vn 0.714540 -0.676051 -0.179964
vn 0.714540 -0.676051 -0.179964
vn 0.714540 -0.676051 -0.179964
vn 0.949332 -0.309756 0.053099
vn 0.949332 -0.309756 0.053099
vn 0.949332 -0.309756 0.053099
vn 0.956802 -0.285254 0.056209
vn 0.956802 -0.285254 0.056209
vn 0.956802 -0.285254 0.056209
vn 0.961904 -0.262978 0.074720
vn 0.961904 -0.262978 0.074720
vn 0.961904 -0.262978 0.074720
vn 0.972940 -0.219524 0.072088
vn 0.972940 -0.219524 0.072088
vn 0.972940 -0.219524 0.072088
vn 0.979053 -0.183176 0.088891
vn 0.979053 -0.183176 0.088891
vn 0.979053 -0.183176 0.088891
vn 0.319151 -0.931882 -0.172449
vn 0.319151 -0.931882 -0.172449
vn 0.319151 -0.931882 -0.172449
vn 0.505271 -0.843972 -0.180034
vn 0.505271 -0.843972 -0.180034
vn 0.505271 -0.843972 -0.180034
vn 0.502234 -0.846573 -0.176282
vn 0.502234 -0.846573 -0.176282
vn 0.502234 -0.846573 -0.176282
vn 0.475483 -0.841004 -0.258123
vn 0.475483 -0.841004 -0.258123
vn 0.475483 -0.841004 -0.258123
vn 0.612337 -0.661264 -0.433328
vn 0.612337 -0.661264 -0.433328
vn 0.612337 -0.661264 -0.433328
vn 0.331405 -0.929796 -0.160155
vn 0.331405 -0.929796 -0.160155
vn 0.331405 -0.929796 -0.160155
vn 0.338263 -0.930483 -0.140641
vn 0.338263 -0.930483 -0.140641
vn 0.338263 -0.930483 -0.140641
vn 0.383170 -0.887131 -0.257253
vn 0.383170 -0.887131 -0.257253
vn 0.383170 -0.887131 -0.257253
vn 0.997118 -0.032500 0.068548
vn 0.997118 -0.032500 0.068548
vn 0.997118 -0.032500 0.068548
vn 0.996534 -0.003164 0.083127
vn 0.996534 -0.003164 0.083127
vn 0.996534 -0.003164 0.083127
vn 0.918581 0.000403 0.395232
vn 0.918581 0.000403 0.395232
vn 0.918581 0.000403 0.395232
vn 0.915809 -0.007205 0.401549
vn 0.915809 -0.007205 0.401549
vn 0.915809 -0.007205 0.401549
vn 0.559437 -0.019164 0.828651
vn 0.559437 -0.019164 0.828651
vn 0.559437 -0.019164 0.828651
vn 0.565464 -0.030594 0.824205
vn 0.565464 -0.030594 0.824205
vn 0.565464 -0.030594 0.824205
vn 0.229062 -0.039178 0.972623
vn 0.229062 -0.039178 0.972623
vn 0.229062 -0.039178 0.972623
vn 0.207535 -0.082043 0.974781
vn 0.207535 -0.082043 0.974781
vn 0.207535 -0.082043 0.974781
vn 0.988377 0.137023 0.065852
vn 0.988377 0.137023 0.065852
vn 0.988377 0.137023 0.065852
vn 0.913213 0.277874 0.298041
vn 0.913213 0.277874 0.298041
vn 0.913213 0.277874 0.298041
vn 0.899615 0.240343 0.364592
vn 0.899615 0.240343 0.364592
vn 0.899615 0.240343 0.364592
vn 0.537933 0.309605 0.784075
vn 0.537933 0.309605 0.784075
vn 0.537933 0.309605 0.784075
vn 0.564170 0.280575 0.776524
vn 0.564170 0.280575 0.776524
vn 0.564170 0.280575 0.776524
vn 0.237472 0.288274 0.927634
vn 0.237472 0.288274 0.927634
vn 0.237472 0.288274 0.927634
vn 0.204525 0.250255 0.946331
vn 0.204525 0.250255 0.946331
vn 0.204525 0.250255 0.946331
vn 0.877245 0.398162 0.268157
vn 0.877245 0.398162 0.268157
vn 0.877245 0.398162 0.268157
vn 0.516649 0.532549 0.670422
vn 0.516649 0.532549 0.670422
vn 0.516649 0.532549 0.670422
vn 0.481394 0.570340 0.665562
vn 0.481394 0.570340 0.665562
vn 0.481394 0.570340 0.665562
vn 0.233309 0.602975 0.762882
vn 0.233309 0.602975 0.762882
vn 0.233309 0.602975 0.762882
vn 0.209462 0.586050 0.782733
vn 0.209462 0.586050 0.782733
vn 0.209462 0.586050 0.782733
s off
g model1:Face_00_00_2_Mesh_001
usemtl model1:initialShadingGroup
f 1/1/1 2/2/2 3/3/3
f 4/4/4 3/3/5 2/2/6
f 5/5/7 3/3/8 4/4/9
f 6/6/10 3/3/11 5/5/12
f 7/7/13 3/3/14 6/6/15
f 1/1/16 3/3/17 7/7/18
f 8/8/19 1/1/20 7/7/21
f 7/7/22 9/9/23 8/8/24
f 9/9/25 7/7/26 10/10/27
f 10/10/28 11/11/29 9/9/30
f 4/4/31 12/12/32 5/5/33
f 13/13/34 5/5/35 12/12/36
f 5/5/37 13/13/38 14/14/39
f 14/14/40 6/6/41 5/5/42
f 6/6/43 14/14/44 15/15/45
f 16/16/46 6/6/47 15/15/48
f 6/6/49 16/16/50 7/7/51
f 16/16/52 10/10/53 7/7/54
f 12/12/55 4/4/56 17/17/57
f 18/18/58 12/12/59 17/17/60
f 12/12/61 18/18/62 19/19/63
f 20/20/64 12/12/65 19/19/66
f 12/12/67 20/20/68 13/13/69
f 20/20/70 21/21/71 13/13/72
f 21/21/73 14/14/74 13/13/75
f 14/14/76 21/21/77 22/22/78
f 22/22/79 15/15/80 14/14/81
f 15/15/82 22/22/83 23/23/84
f 23/23/85 16/16/86 15/15/87
f 24/24/88 19/19/89 18/18/90
f 19/19/91 24/24/92 25/25/93
f 26/26/94 19/19/95 25/25/96
f 19/19/97 26/26/98 20/20/99
f 27/27/100 20/20/101 26/26/102
f 21/21/103 20/20/104 27/27/105
f 28/28/106 21/21/107 27/27/108
f 21/21/109 28/28/110 29/29/111
f 29/29/112 22/22/113 21/21/114
f 22/22/115 29/29/116 30/30/117
f 30/30/118 23/23/119 22/22/120
f 31/31/121 25/25/122 24/24/123
f 25/25/124 31/31/125 32/32/126
f 33/33/127 25/25/128 32/32/129
f 25/25/130 33/33/131 26/26/132
f 26/26/133 33/33/134 34/34/135
f 27/27/136 26/26/137 34/34/138
f 34/34/139 28/28/140 27/27/141
f 23/23/142 30/30/143 35/35/144
f 36/36/145 23/23/146 35/35/147
f 16/16/148 23/23/149 36/36/150
f 36/36/151 37/37/152 16/16/153
f 10/10/154 16/16/155 37/37/156
f 37/37/157 38/38/158 10/10/159
f 11/11/160 10/10/161 38/38/162
f 38/38/163 39/39/164 11/11/165
f 40/40/166 36/36/167 35/35/168
f 36/36/169 40/40/170 41/41/171
f 37/37/172 36/36/173 41/41/174
f 42/42/175 37/37/176 41/41/177
f 37/37/178 42/42/179 38/38/180
f 39/39/181 38/38/182 42/42/183
f 43/43/184 39/39/185 42/42/186
f 39/39/187 43/43/188 44/44/189
f 43/43/190 45/45/191 44/44/192
f 43/43/193 46/46/194 45/45/195
f 35/35/196 46/46/197 40/40/198
f 40/40/199 46/46/200 43/43/201
f 43/43/202 41/41/203 40/40/204
f 41/41/205 43/43/206 42/42/207
f 47/47/208 48/48/209 49/49/210
f 47/47/211 50/50/212 48/48/213
f 50/50/214 51/51/215 48/48/216
f 51/51/217 52/52/218 48/48/219
f 52/52/220 53/53/221 48/48/222
f 53/53/223 49/49/224 48/48/225
f 50/50/226 47/47/227 54/54/228
f 55/55/229 50/50/230 54/54/231
f 50/50/232 55/55/233 56/56/234
f 56/56/235 57/57/236 50/50/237
f 57/57/238 51/51/239 50/50/240
f 51/51/241 57/57/242 58/58/243
f 59/59/244 51/51/245 58/58/246
f 51/51/247 59/59/248 52/52/249
f 60/60/250 52/52/251 59/59/252
f 52/52/253 60/60/254 61/61/255
f 61/61/256 53/53/257 52/52/258
f 53/53/259 61/61/260 62/62/261
f 63/63/262 56/56/263 55/55/264
f 56/56/265 63/63/266 64/64/267
f 65/65/268 56/56/269 64/64/270
f 57/57/271 56/56/272 65/65/273
f 65/65/274 66/66/275 57/57/276
f 67/67/277 57/57/278 66/66/279
f 57/57/280 67/67/281 58/58/282
f 68/68/283 58/58/284 67/67/285
f 58/58/286 68/68/287 59/59/288
f 69/69/289 59/59/290 68/68/291
f 59/59/292 69/69/293 60/60/294
f 70/70/295 64/64/296 63/63/297
f 64/64/298 70/70/299 71/71/300
f 71/71/301 65/65/302 64/64/303
f 65/65/304 71/71/305 72/72/306
f 66/66/307 65/65/308 72/72/309
f 73/73/310 66/66/311 72/72/312
f 66/66/313 73/73/314 74/74/315
f 66/66/316 74/74/317 67/67/318
f 75/75/319 67/67/320 74/74/321
f 67/67/322 75/75/323 68/68/324
f 76/76/325 68/68/326 75/75/327
f 68/68/328 76/76/329 69/69/330
f 70/70/331 77/77/332 71/71/333
f 77/77/334 72/72/335 71/71/336
f 72/72/337 77/77/338 73/73/339
f 73/73/340 77/77/341 78/78/342
f 74/74/343 73/73/344 78/78/345
f 77/77/346 70/70/347 79/79/348
f 77/77/349 79/79/350 80/80/351
f 77/77/352 80/80/353 78/78/354
f 81/81/355 69/69/356 76/76/357
f 69/69/358 81/81/359 82/82/360
f 83/83/361 69/69/362 82/82/363
f 69/69/364 83/83/365 60/60/366
f 83/83/367 61/61/368 60/60/369
f 61/61/370 83/83/371 84/84/372
f 85/85/373 61/61/374 84/84/375
f 61/61/376 85/85/377 62/62/378
f 86/86/379 82/82/380 81/81/381
f 82/82/382 86/86/383 87/87/384
f 82/82/385 87/87/386 83/83/387
f 87/87/388 84/84/389 83/83/390
f 84/84/391 87/87/392 88/88/393
f 89/89/394 84/84/395 88/88/396
f 84/84/397 89/89/398 85/85/399
f 87/87/400 86/86/401 90/90/402
f 90/90/403 88/88/404 87/87/405
f 88/88/406 90/90/407 91/91/408
f 92/92/409 88/88/410 91/91/411
f 88/88/412 92/92/413 89/89/414
