# This file uses centimeters as units for non-parametric coordinates.

mtllib gloveL.mtl
g default
v 3.327142 12.112746 -1.159425
v 3.836910 11.309372 -0.119046
v 3.986488 12.850507 -0.390311
v 3.796220 10.600294 -1.034684
v 3.847449 10.528280 0.182635
v 3.780073 10.116831 -0.791690
v 3.940601 9.795510 0.330275
v 3.878158 9.561882 -0.322231
v 4.564131 9.562381 0.311926
v 4.020102 12.432892 -2.497375
v 5.031183 11.063001 -2.830967
v 5.063066 10.130776 -0.791866
v 4.753488 9.621126 -0.559177
v 4.510083 9.325288 -0.423368
v 4.840064 9.990916 0.255647
v 5.099234 10.641043 -0.035523
v 5.491453 10.258746 -0.028800
v 5.358081 9.966050 -1.047014
v 5.685332 9.305530 0.034525
v 5.577589 9.110536 -0.746509
v 6.843994 9.091130 -0.068433
v 6.788567 8.875351 -0.749298
v 7.080382 10.358005 -0.999308
v 5.394691 10.255723 -3.000831
v 5.101230 9.463651 -2.621265
v 5.218544 9.371526 -1.149062
v 6.344531 9.181376 -1.149767
v 6.090058 9.103284 -2.482608
vt 0.536337 0.159443
vt 0.620670 0.061553
vt 0.542155 0.087563
vt 0.658872 0.147363
vt 0.640220 0.036156
vt 0.659157 0.127570
vt 0.673711 0.023141
vt 0.674159 0.079046
vt 0.721592 0.022818
vt 0.568904 0.285441
vt 0.723177 0.316609
vt 0.787162 0.120454
vt 0.756652 0.108999
vt 0.747353 0.090759
vt 0.741557 0.032566
vt 0.760180 0.049547
vt 0.816682 0.048893
vt 0.823844 0.144450
vt 0.878940 0.046951
vt 0.882317 0.120257
vt 0.971641 0.056845
vt 0.980087 0.120744
vt 0.915475 0.144773
vt 0.796936 0.332409
vt 0.823424 0.317715
vt 0.837440 0.179373
vt 0.931642 0.179657
vt 0.917387 0.304815
vn -0.824101 0.174821 0.538791
vn -0.824101 0.174821 0.538791
vn -0.824101 0.174821 0.538791
vn -0.930661 -0.268104 0.248979
vn -0.930661 -0.268104 0.248979
vn -0.930661 -0.268104 0.248979
vn -0.999105 0.002823 0.042213
vn -0.999105 0.002823 0.042213
vn -0.999105 0.002823 0.042213
vn -0.997399 0.056074 0.045292
vn -0.997399 0.056074 0.045292
vn -0.997399 0.056074 0.045292
vn -0.988358 -0.103100 0.111885
vn -0.988358 -0.103100 0.111885
vn -0.988358 -0.103100 0.111885
vn -0.990005 -0.072785 0.120802
vn -0.990005 -0.072785 0.120802
vn -0.990005 -0.072785 0.120802
vn -0.319570 -0.881986 0.346376
vn -0.319570 -0.881986 0.346376
vn -0.319570 -0.881986 0.346376
vn -0.818008 -0.294454 -0.494126
vn -0.818008 -0.294454 -0.494126
vn -0.818008 -0.294454 -0.494126
vn -0.712411 -0.382543 -0.588329
vn -0.712411 -0.382543 -0.588329
vn -0.712411 -0.382543 -0.588329
vn -0.250344 -0.881978 -0.399304
vn -0.250344 -0.881978 -0.399303
vn -0.250344 -0.881978 -0.399304
vn 0.004760 -0.449202 -0.893418
vn 0.004760 -0.449202 -0.893418
vn 0.004760 -0.449202 -0.893418
vn 0.004413 -0.417538 -0.908649
vn 0.004413 -0.417538 -0.908649
vn 0.004413 -0.417538 -0.908649
vn -0.156145 -0.653871 -0.740319
vn -0.156145 -0.653871 -0.740319
vn -0.156144 -0.653871 -0.740319
vn -0.239025 -0.235758 -0.941958
vn -0.239025 -0.235758 -0.941958
vn -0.239025 -0.235758 -0.941958
vn -0.288677 -0.904826 0.312977
vn -0.288677 -0.904826 0.312977
vn -0.288677 -0.904826 0.312977
vn 0.842245 -0.528090 0.108371
vn 0.842245 -0.528090 0.108371
vn 0.842245 -0.528090 0.108371
vn 0.798312 -0.575801 0.176494
vn 0.798312 -0.575801 0.176494
vn 0.798312 -0.575801 0.176494
vn 0.936018 -0.347127 0.058083
vn 0.936018 -0.347127 0.058082
vn 0.936018 -0.347127 0.058082
vn 0.874364 -0.420638 0.241972
vn 0.874364 -0.420638 0.241972
vn 0.874364 -0.420638 0.241972
vn -0.624857 -0.633041 0.456961
vn -0.624857 -0.633041 0.456961
vn -0.624857 -0.633041 0.456961
vn -0.652283 -0.693156 -0.306695
vn -0.652283 -0.693156 -0.306695
vn -0.652283 -0.693156 -0.306695
vn -0.255881 -0.919668 0.297886
vn -0.255881 -0.919668 0.297886
vn -0.255881 -0.919668 0.297886
vn -0.966259 -0.184598 0.179631
vn -0.966259 -0.184598 0.179631
vn -0.966259 -0.184598 0.179631
vn -0.966238 -0.184884 0.179450
vn -0.966238 -0.184884 0.179450
vn -0.966238 -0.184884 0.179450
vn -0.153411 -0.953554 0.259229
vn -0.153411 -0.953554 0.259229
vn -0.153411 -0.953554 0.259229
vn -0.180538 -0.933281 0.310470
vn -0.180538 -0.933281 0.310470
vn -0.180538 -0.933281 0.310470
vn -0.069433 -0.346419 -0.935507
vn -0.069433 -0.346419 -0.935507
vn -0.069433 -0.346419 -0.935507
vn 0.067894 -0.178872 -0.981527
vn 0.067894 -0.178872 -0.981527
vn 0.067894 -0.178872 -0.981527
vn -0.915075 -0.396083 -0.075869
vn -0.915075 -0.396083 -0.075869
vn -0.915075 -0.396083 -0.075869
vn -0.931303 0.362433 0.036284
vn -0.931303 0.362433 0.036284
vn -0.931303 0.362433 0.036284
vn -0.972876 0.212747 0.090837
vn -0.972876 0.212747 0.090837
vn -0.972876 0.212747 0.090837
vn 0.011825 -0.171855 0.985051
vn 0.011825 -0.171855 0.985051
vn 0.011825 -0.171855 0.985051
vn -0.018836 -0.115218 0.993162
vn -0.018836 -0.115218 0.993162
vn -0.018836 -0.115218 0.993162
vn -0.165798 -0.982118 0.089197
vn -0.165798 -0.982118 0.089197
vn -0.165798 -0.982118 0.089197
vn -0.338283 -0.940504 -0.031897
vn -0.338283 -0.940504 -0.031897
vn -0.338283 -0.940504 -0.031897
s off
g polySurface28 model1:abta275_2_Mesh_015__n_abta275_2_Mesh_015__n__null_
usemtl model1:initialShadingGroup
f 1/1/1 2/2/2 3/3/3
f 2/2/4 1/1/5 4/4/6
f 4/4/7 5/5/8 2/2/9
f 5/5/10 4/4/11 6/6/12
f 6/6/13 7/7/14 5/5/15
f 7/7/16 6/6/17 8/8/18
f 8/8/19 9/9/20 7/7/21
f 10/10/22 4/4/23 1/1/24
f 4/4/25 10/10/26 11/11/27
f 12/12/28 4/4/29 11/11/30
f 12/12/31 6/6/32 4/4/33
f 6/6/34 12/12/35 13/13/36
f 13/13/37 8/8/38 6/6/39
f 8/8/40 13/13/41 14/14/42
f 9/9/43 8/8/44 14/14/45
f 14/14/46 15/15/47 9/9/48
f 15/15/49 14/14/50 13/13/51
f 13/13/52 16/16/53 15/15/54
f 16/16/55 13/13/56 12/12/57
f 12/12/58 17/17/59 16/16/60
f 11/11/61 18/18/62 12/12/63
f 17/17/64 12/12/65 18/18/66
f 18/18/67 19/19/68 17/17/69
f 19/19/70 18/18/71 20/20/72
f 20/20/73 21/21/74 19/19/75
f 21/21/76 20/20/77 22/22/78
f 18/18/79 22/22/80 20/20/81
f 22/22/82 18/18/83 23/23/84
f 18/18/85 11/11/86 24/24/87
f 25/25/88 18/18/89 24/24/90
f 18/18/91 25/25/92 26/26/93
f 26/26/94 23/23/95 18/18/96
f 23/23/97 26/26/98 27/27/99
f 26/26/100 28/28/101 27/27/102
f 28/28/103 26/26/104 25/25/105
g default
v 6.843994 9.091130 -0.068433
v 5.491453 10.258746 -0.028800
v 5.685332 9.305530 0.034525
v 6.909432 10.514364 -0.278664
v 5.099234 10.641043 -0.035523
v 6.203085 11.830325 -0.397621
v 3.986488 12.850507 -0.390311
v 3.836910 11.309372 -0.119046
v 4.840064 9.990916 0.255647
v 6.788567 8.875351 -0.749298
v 7.080382 10.358005 -0.999308
v 6.363613 11.633188 -1.296996
v 4.881370 13.301353 -0.832644
v 6.219848 11.538480 -2.689639
v 4.851572 13.067519 -2.332238
v 5.031183 11.063001 -2.830967
v 4.020102 12.432892 -2.497375
v 6.620494 10.504001 -2.737668
v 5.394691 10.255723 -3.000831
v 6.344531 9.181376 -1.149767
v 6.090058 9.103284 -2.482608
v 5.101230 9.463651 -2.621265
v 3.847449 10.528280 0.182635
v 4.564131 9.562381 0.311926
v 3.940601 9.795510 0.330275
vt 0.517353 0.511008
vt 0.669231 0.455501
vt 0.581080 0.441125
vt 0.635880 0.556756
vt 0.716181 0.446486
vt 0.769093 0.562037
vt 0.944974 0.468518
vt 0.820918 0.405228
vt 0.670496 0.400220
vt 0.501063 0.559446
vt 0.616287 0.619041
vt 0.748236 0.631455
vt 0.944813 0.562072
vt 0.745711 0.727261
vt 0.919843 0.670953
vt 0.737939 0.813101
vt 0.895793 0.742400
vt 0.645658 0.742045
vt 0.637939 0.825927
vt 0.539294 0.604798
vt 0.542044 0.699765
vt 0.574536 0.780961
vt 0.754158 0.367104
vt 0.644261 0.376191
vt 0.688454 0.345738
vn 0.104135 0.086999 0.990751
vn 0.104135 0.086999 0.990751
vn 0.104135 0.086999 0.990751
vn 0.147722 0.137874 0.979372
vn 0.147722 0.137874 0.979372
vn 0.147722 0.137874 0.979372
vn 0.142557 0.163424 0.976202
vn 0.142557 0.163424 0.976202
vn 0.142557 0.163424 0.976202
vn 0.142620 0.164775 0.975965
vn 0.142620 0.164775 0.975965
vn 0.142620 0.164775 0.975965
vn 0.097857 0.205640 0.973723
vn 0.097857 0.205640 0.973723
vn 0.097857 0.205640 0.973723
vn 0.025318 0.170912 0.984961
vn 0.025318 0.170912 0.984961
vn 0.025318 0.170912 0.984961
vn 0.130321 0.361523 0.923211
vn 0.130321 0.361523 0.923211
vn 0.130321 0.361523 0.923211
vn 0.996446 -0.055213 -0.063620
vn 0.996446 -0.055213 -0.063620
vn 0.996446 -0.055213 -0.063620
vn 0.955283 -0.144520 0.257968
vn 0.955283 -0.144520 0.257968
vn 0.955283 -0.144520 0.257968
vn 0.858304 0.504428 0.094159
vn 0.858304 0.504428 0.094159
vn 0.858304 0.504428 0.094159
vn 0.877909 0.475955 0.052370
vn 0.877909 0.475955 0.052370
vn 0.877909 0.475955 0.052370
vn 0.745685 0.666173 -0.012925
vn 0.745685 0.666173 -0.012925
vn 0.745685 0.666173 -0.012925
vn 0.207216 0.443982 0.871746
vn 0.207216 0.443982 0.871746
vn 0.207216 0.443982 0.871746
vn 0.877109 0.464503 -0.122134
vn 0.877109 0.464503 -0.122134
vn 0.877109 0.464503 -0.122134
vn 0.725091 0.677947 -0.120957
vn 0.725091 0.677947 -0.120957
vn 0.725091 0.677947 -0.120957
vn 0.725696 0.677459 -0.120057
vn 0.725696 0.677459 -0.120057
vn 0.725697 0.677459 -0.120057
vn 0.018139 0.242932 -0.969874
vn 0.018139 0.242932 -0.969874
vn 0.018139 0.242932 -0.969874
vn 0.007908 0.242102 -0.970219
vn 0.007908 0.242102 -0.970219
vn 0.007908 0.242102 -0.970219
vn 0.908400 0.361563 -0.209954
vn 0.908400 0.361563 -0.209954
vn 0.908400 0.361563 -0.209954
vn 0.185703 0.117217 -0.975589
vn 0.185703 0.117217 -0.975589
vn 0.185703 0.117217 -0.975589
vn 0.028707 0.218183 -0.975486
vn 0.028707 0.218183 -0.975486
vn 0.028707 0.218183 -0.975486
vn 0.833056 -0.487567 -0.261336
vn 0.833056 -0.487567 -0.261336
vn 0.833056 -0.487567 -0.261336
vn 0.914691 -0.374191 -0.152714
vn 0.914691 -0.374191 -0.152714
vn 0.914691 -0.374191 -0.152714
vn 0.063433 -0.201986 -0.977332
vn 0.063433 -0.201986 -0.977332
vn 0.063433 -0.201986 -0.977332
vn 0.277184 -0.496800 -0.822410
vn 0.277184 -0.496800 -0.822410
vn 0.277184 -0.496800 -0.822410
vn 0.126264 0.358889 0.924801
vn 0.126264 0.358889 0.924801
vn 0.126264 0.358889 0.924801
vn -0.001808 0.131354 0.991334
vn -0.001808 0.131355 0.991334
vn -0.001808 0.131354 0.991334
vn 0.106902 0.209423 0.971964
vn 0.106902 0.209423 0.971964
vn 0.106902 0.209423 0.971964
s off
g model1:abta275_2_Mesh_015__n_abta275_2_Mesh_015__n__null_ polySurface29
usemtl model1:initialShadingGroup
f 29/29/106 30/30/107 31/31/108
f 30/30/109 29/29/110 32/32/111
f 32/32/112 33/33/113 30/30/114
f 33/33/115 32/32/116 34/34/117
f 34/34/118 35/35/119 33/33/120
f 35/35/121 36/36/122 33/33/123
f 36/36/124 37/37/125 33/33/126
f 38/38/127 32/32/128 29/29/129
f 32/32/130 38/38/131 39/39/132
f 40/40/133 32/32/134 39/39/135
f 32/32/136 40/40/137 34/34/138
f 41/41/139 34/34/140 40/40/141
f 35/35/142 34/34/143 41/41/144
f 39/39/145 42/42/146 40/40/147
f 41/41/148 40/40/149 42/42/150
f 41/41/151 42/42/152 43/43/153
f 44/44/154 43/43/155 42/42/156
f 43/43/157 44/44/158 45/45/159
f 42/42/160 39/39/161 46/46/162
f 47/47/163 42/42/164 46/46/165
f 42/42/166 47/47/167 44/44/168
f 48/48/169 46/46/170 39/39/171
f 46/46/172 48/48/173 49/49/174
f 50/50/175 46/46/176 49/49/177
f 46/46/178 50/50/179 47/47/180
f 37/37/181 36/36/182 51/51/183
f 51/51/184 52/52/185 37/37/186
f 52/52/187 51/51/188 53/53/189
