# This file uses centimeters as units for non-parametric coordinates.

mtllib jewelryR.mtl
g default
v -3.130944 13.162785 -2.840567
v -4.696739 14.128537 -2.971532
v -3.883237 13.515577 -1.473993
v -2.620413 12.886205 -1.228856
v -3.543861 13.598454 0.375045
v -4.694303 14.327729 -0.317504
vt 0.146658 0.213272
vt 0.032237 0.221300
vt 0.095198 0.128583
vt 0.182758 0.113058
vt 0.146658 0.213272
vt 0.095198 0.128583
vt 0.110769 0.012966
vt 0.182758 0.113058
vt 0.095198 0.128583
vt 0.026075 0.055869
vt 0.110769 0.012966
vt 0.095198 0.128583
vn 0.519785 0.851724 0.066260
vn 0.519785 0.851724 0.066260
vn 0.519785 0.851724 0.066260
vn 0.443978 0.895942 0.013113
vn 0.443978 0.895942 0.013113
vn 0.443978 0.895942 0.013113
vn 0.461803 0.878254 -0.124125
vn 0.461803 0.878254 -0.124125
vn 0.461803 0.878254 -0.124125
vn 0.590180 0.794338 -0.143926
vn 0.590180 0.794338 -0.143926
vn 0.590180 0.794338 -0.143926
s off
g polySurface37 model1:abta275_2_Mesh_015__n_abta275_2_Mesh_015__n__null_
usemtl model1:initialShadingGroup
f 1/1/1 2/2/2 3/3/3
f 4/4/4 1/5/5 3/6/6
f 5/7/7 4/8/8 3/9/9
f 6/10/10 5/11/11 3/12/12
g default
v -4.927932 14.196265 -1.320276
v -4.728857 13.957176 -2.201155
v -4.379236 14.037851 -0.469049
v -3.104581 13.078176 -0.604769
v -3.779369 13.574703 -0.191442
v -3.298812 12.997501 -2.318087
v -2.905536 12.839086 -1.485619
v -4.054069 13.460619 -2.614454
vt 0.924824 0.885976
vt 0.918167 0.905749
vt 0.912658 0.866688
vt 0.918167 0.905749
vt 0.877086 0.869905
vt 0.912658 0.866688
vt 0.877086 0.869905
vt 0.895776 0.860630
vt 0.912658 0.866688
vt 0.918167 0.905749
vt 0.879704 0.908367
vt 0.877086 0.869905
vt 0.879704 0.908367
vt 0.870429 0.889678
vt 0.877086 0.869905
vt 0.918167 0.905749
vt 0.899478 0.915024
vt 0.879704 0.908367
vn -0.461012 -0.877232 0.133912
vn -0.461012 -0.877232 0.133912
vn -0.461012 -0.877232 0.133912
vn -0.583633 -0.797100 0.154931
vn -0.583633 -0.797100 0.154931
vn -0.583633 -0.797100 0.154931
vn -0.603085 -0.797224 -0.026881
vn -0.603085 -0.797224 -0.026881
vn -0.603085 -0.797224 -0.026881
vn -0.548647 -0.829897 0.101275
vn -0.548647 -0.829897 0.101275
vn -0.548647 -0.829897 0.101275
vn -0.548661 -0.829888 0.101276
vn -0.548661 -0.829888 0.101276
vn -0.548661 -0.829888 0.101276
vn -0.548642 -0.829896 0.101316
vn -0.548642 -0.829896 0.101316
vn -0.548642 -0.829896 0.101316
s off
g model1:abta275_2_Mesh_015__n_abta275_2_Mesh_015__n__null_ polySurface35
usemtl model1:initialShadingGroup
f 7/13/13 8/14/14 9/15/15
f 8/16/16 10/17/17 9/18/18
f 10/19/19 11/20/20 9/21/21
f 8/22/22 12/23/23 10/24/24
f 12/25/25 13/26/26 10/27/27
f 8/28/28 14/29/29 12/30/30
g default
v -4.881370 13.301353 -0.832644
v -6.221404 11.842596 -1.461428
v -4.851543 13.067519 -2.332267
v -4.851543 13.067519 -2.332267
v -6.221404 11.842596 -1.461428
v -6.736574 12.022383 -2.897727
v -5.305208 13.239438 -3.058167
v -7.144529 12.666668 -1.478456
v -6.096634 13.803958 -1.607513
v -4.696739 14.128537 -2.971532
v -3.740617 12.380254 -2.840567
v -3.130944 13.162785 -2.840567
v -2.996809 11.925150 -1.228856
v -2.620413 12.886205 -1.228856
v -7.135869 11.662634 -1.418361
v -6.638284 12.221047 -0.045710
v -5.591652 13.580751 -0.165548
v -5.180144 14.640389 -1.679380
v -4.301643 15.404777 -1.757266
v -3.748631 15.126231 -2.619562
v -3.368977 15.427999 -1.686426
v -3.702276 15.276190 -0.817320
v -4.694303 14.327729 -0.317504
v -3.543861 13.598454 0.375045
v -4.031611 12.627945 0.375045
v -2.620413 12.886205 -1.228856
v -2.996809 11.925150 -1.228856
v -4.881370 13.301353 -0.832644
v -6.221404 11.842596 -1.461428
v -5.305208 13.239438 -3.058167
v -3.740617 12.380254 -2.840567
v -4.020102 12.432922 -2.497375
v -3.327113 12.112746 -1.159425
v -2.996809 11.925150 -1.228856
v -3.986488 12.850507 -0.390311
v -4.031611 12.627945 0.375045
v -5.591652 13.580751 -0.165548
vt 0.163045 0.663309
vt 0.071136 0.355969
vt 0.146002 0.753349
vt 0.339366 0.550796
vt 0.153692 0.527633
vt 0.192250 0.477210
vt 0.192250 0.477210
vt 0.343404 0.501048
vt 0.339366 0.550796
vt 0.343404 0.501048
vt 0.192250 0.477210
vt 0.204952 0.359658
vt 0.204952 0.359658
vt 0.332175 0.369869
vt 0.343404 0.501048
vt 0.427077 0.492094
vt 0.343404 0.501048
vt 0.332175 0.369869
vt 0.362772 0.625729
vt 0.343404 0.501048
vt 0.427077 0.492094
vt 0.427077 0.492094
vt 0.442371 0.624522
vt 0.362772 0.625729
vt 0.376365 0.755946
vt 0.362772 0.625729
vt 0.442371 0.624522
vt 0.442371 0.624522
vt 0.456195 0.735209
vt 0.376365 0.755946
vt 0.204952 0.359658
vt 0.192250 0.477210
vt 0.145249 0.358488
vt 0.207675 0.248297
vt 0.204952 0.359658
vt 0.145249 0.358488
vt 0.204952 0.359658
vt 0.207675 0.248297
vt 0.345881 0.247532
vt 0.345881 0.247532
vt 0.332175 0.369869
vt 0.204952 0.359658
vt 0.429774 0.376011
vt 0.332175 0.369869
vt 0.345881 0.247532
vt 0.332175 0.369869
vt 0.429774 0.376011
vt 0.427077 0.492094
vt 0.427077 0.492094
vt 0.429774 0.376011
vt 0.521802 0.383311
vt 0.536279 0.461385
vt 0.427077 0.492094
vt 0.574416 0.380397
vt 0.071136 0.355969
vt 0.145249 0.358488
vt 0.192250 0.477210
vt 0.207675 0.248297
vt 0.145249 0.358488
vt 0.071136 0.355969
vt 0.547404 0.303997
vt 0.438605 0.260156
vt 0.429774 0.376011
vt 0.438605 0.260156
vt 0.345881 0.247532
vt 0.438605 0.260156
vt 0.429774 0.376011
vt 0.450898 0.177336
vt 0.438605 0.260156
vt 0.345881 0.247532
vt 0.345881 0.247532
vt 0.374832 0.149669
vt 0.450898 0.177336
vt 0.478973 0.063703
vt 0.450898 0.177336
vt 0.374832 0.149669
vt 0.374832 0.149669
vt 0.409238 0.031102
vt 0.478973 0.063703
vt 0.353054 0.191027
vt 0.345881 0.247532
vt 0.207675 0.248297
vt 0.207675 0.248297
vt 0.190238 0.180630
vt 0.353054 0.191027
vt 0.146002 0.753349
vt 0.183777 0.797422
vt 0.081177 0.784343
vt 0.081177 0.784343
vt 0.097631 0.763024
vt 0.146002 0.753349
vt 0.051184 0.681920
vt 0.097631 0.763024
vt 0.081177 0.784343
vt 0.081177 0.784343
vt 0.028001 0.686130
vt 0.051184 0.681920
vt 0.108281 0.636703
vt 0.051184 0.681920
vt 0.028001 0.686130
vt 0.028001 0.686130
vt 0.104055 0.589088
vt 0.108281 0.636703
vt 0.108281 0.636703
vt 0.104055 0.589088
vt 0.200711 0.621965
vt 0.200711 0.621965
vt 0.163045 0.663309
vt 0.108281 0.636703
vn 0.703840 -0.699613 0.123089
vn 0.703840 -0.699613 0.123089
vn 0.703840 -0.699613 0.123089
vn 0.529101 -0.797605 -0.289617
vn 0.529101 -0.797605 -0.289617
vn 0.529101 -0.797605 -0.289617
vn 0.530201 -0.688750 -0.494480
vn 0.530201 -0.688750 -0.494480
vn 0.530201 -0.688750 -0.494480
vn -0.602597 0.647148 -0.466986
vn -0.602597 0.647148 -0.466986
vn -0.602597 0.647148 -0.466986
vn -0.641855 0.528335 -0.555774
vn -0.641855 0.528335 -0.555774
vn -0.641854 0.528335 -0.555774
vn -0.659408 0.505499 -0.556464
vn -0.659408 0.505499 -0.556464
vn -0.659408 0.505499 -0.556464
vn 0.138628 0.001628 -0.990343
vn 0.138628 0.001628 -0.990343
vn 0.138628 0.001628 -0.990343
vn 0.056349 -0.043902 -0.997445
vn 0.056349 -0.043902 -0.997445
vn 0.056349 -0.043902 -0.997445
vn 0.694806 -0.541325 -0.473510
vn 0.694806 -0.541325 -0.473510
vn 0.694806 -0.541325 -0.473510
vn 0.876780 -0.343390 -0.336660
vn 0.876780 -0.343390 -0.336660
vn 0.876780 -0.343390 -0.336660
vn -0.963669 -0.024234 -0.265996
vn -0.963669 -0.024234 -0.265996
vn -0.963669 -0.024234 -0.265996
vn -0.941625 0.012016 0.336450
vn -0.941625 0.012016 0.336450
vn -0.941625 0.012016 0.336450
vn -0.698509 0.575199 0.425712
vn -0.698509 0.575199 0.425712
vn -0.698509 0.575199 0.425712
vn -0.672862 0.658275 0.337536
vn -0.672862 0.658275 0.337536
vn -0.672862 0.658275 0.337536
vn -0.622648 0.710429 0.328024
vn -0.622648 0.710429 0.328024
vn -0.622648 0.710429 0.328024
vn -0.612133 0.629616 -0.478410
vn -0.612133 0.629616 -0.478410
vn -0.612133 0.629616 -0.478410
vn -0.600164 0.641010 -0.478446
vn -0.600164 0.641010 -0.478446
vn -0.600164 0.641010 -0.478446
vn -0.505805 0.671644 -0.541346
vn -0.505805 0.671644 -0.541346
vn -0.505805 0.671644 -0.541346
vn -0.000329 0.951522 -0.307580
vn -0.000329 0.951522 -0.307580
vn -0.000329 0.951522 -0.307580
vn 0.181290 -0.965698 -0.185905
vn 0.181290 -0.965698 -0.185905
vn 0.181290 -0.965698 -0.185905
vn 0.197666 -0.930935 0.307064
vn 0.197666 -0.930935 0.307064
vn 0.197666 -0.930935 0.307064
vn -0.036593 0.986710 0.158318
vn -0.036593 0.986710 0.158318
vn -0.036593 0.986710 0.158318
vn -0.504685 0.751645 0.424645
vn -0.504685 0.751645 0.424645
vn -0.504685 0.751645 0.424645
vn -0.589491 0.715664 0.374600
vn -0.589491 0.715664 0.374600
vn -0.589491 0.715664 0.374600
vn -0.556766 0.743998 0.369430
vn -0.556766 0.743998 0.369430
vn -0.556766 0.743998 0.369430
vn -0.231221 0.452926 0.861043
vn -0.231221 0.452926 0.861043
vn -0.231221 0.452926 0.861043
vn -0.254185 0.127746 0.958682
vn -0.254185 0.127746 0.958682
vn -0.254185 0.127746 0.958682
vn 0.727227 -0.365483 0.581002
vn 0.727227 -0.365483 0.581002
vn 0.727227 -0.365483 0.581002
vn 0.741141 -0.290266 0.605356
vn 0.741141 -0.290266 0.605356
vn 0.741141 -0.290266 0.605356
vn 0.557757 -0.363572 0.746138
vn 0.557757 -0.363572 0.746138
vn 0.557757 -0.363572 0.746138
vn 0.600954 -0.710150 0.366798
vn 0.600954 -0.710150 0.366798
vn 0.600954 -0.710150 0.366798
vn -0.489629 -0.866075 0.100886
vn -0.489629 -0.866075 0.100886
vn -0.489629 -0.866075 0.100886
vn -0.606699 -0.694053 -0.387564
vn -0.606699 -0.694053 -0.387564
vn -0.606699 -0.694053 -0.387564
vn -0.281798 -0.955895 -0.082792
vn -0.281798 -0.955895 -0.082792
vn -0.281798 -0.955895 -0.082792
vn -0.496339 -0.867981 -0.016032
vn -0.496339 -0.867981 -0.016032
vn -0.496339 -0.867981 -0.016032
vn -0.361059 -0.808026 0.465543
vn -0.361059 -0.808026 0.465543
vn -0.361059 -0.808026 0.465543
vn -0.759752 -0.610973 -0.222459
vn -0.759752 -0.610973 -0.222459
vn -0.759752 -0.610973 -0.222459
vn -0.429768 -0.859916 -0.275397
vn -0.429768 -0.859916 -0.275397
vn -0.429768 -0.859916 -0.275397
vn -0.421156 -0.904308 -0.069671
vn -0.421157 -0.904308 -0.069671
vn -0.421157 -0.904308 -0.069671
s off
g model1:abta275_2_Mesh_015__n_abta275_2_Mesh_015__n__null_ polySurface26
usemtl model1:initialShadingGroup
f 15/31/31 16/32/32 17/33/33
f 18/34/34 19/35/35 20/36/36
f 20/37/37 21/38/38 18/39/39
f 21/40/40 20/41/41 22/42/42
f 22/43/43 23/44/44 21/45/45
f 24/46/46 21/47/47 23/48/48
f 25/49/49 21/50/50 24/51/51
f 24/52/52 26/53/53 25/54/54
f 27/55/55 25/56/56 26/57/57
f 26/58/58 28/59/59 27/60/60
f 22/61/61 20/62/62 29/63/63
f 30/64/64 22/65/65 29/66/66
f 22/67/67 30/68/68 31/69/69
f 31/70/70 23/71/71 22/72/72
f 32/73/73 23/74/74 31/75/75
f 23/76/76 32/77/77 24/78/78
f 24/79/79 32/80/80 33/81/81
f 33/81/82 34/82/83 24/83/84
f 35/84/85 34/82/86 33/81/87
f 16/85/88 29/86/89 20/87/90
f 30/88/91 29/89/92 16/90/93
f 33/81/94 36/91/95 35/84/96
f 37/92/97 36/91/98 33/81/99
f 33/81/100 32/93/101 37/94/102
f 31/95/103 37/96/104 32/97/105
f 38/98/106 37/99/107 31/100/108
f 31/101/109 39/102/110 38/103/111
f 40/104/112 38/105/113 39/106/114
f 39/107/115 41/108/116 40/109/117
f 42/110/118 31/111/119 30/112/120
f 30/113/121 43/114/122 42/115/123
f 17/116/124 44/117/125 45/118/126
f 45/119/127 46/120/128 17/121/129
f 47/122/130 46/123/131 45/124/132
f 45/125/133 48/126/134 47/127/135
f 49/128/136 47/129/137 48/130/138
f 48/131/139 50/132/140 49/133/141
f 49/134/142 50/135/143 51/136/144
f 51/137/145 15/138/146 49/139/147
g default
v -2.865433 13.653059 -2.398058
v -3.620661 14.116207 -2.694453
v -3.937900 13.209904 -1.482948
v -4.295478 14.612734 -2.281155
v -4.494553 14.851824 -1.400276
v -3.945857 14.693409 -0.549048
v -3.345990 14.230291 -0.271442
v -2.671202 13.733734 -0.684769
v -2.472127 13.494645 -1.565619
vt 0.958543 0.962400
vt 0.882749 0.987705
vt 0.900862 0.892207
vt 0.882749 0.987705
vt 0.811274 0.951990
vt 0.900862 0.892207
vt 0.811274 0.951990
vt 0.785988 0.876177
vt 0.900862 0.892207
vt 0.785988 0.876177
vt 0.832973 0.802403
vt 0.900862 0.892207
vt 0.832973 0.802403
vt 0.897496 0.779372
vt 0.900862 0.892207
vt 0.897496 0.779372
vt 0.968971 0.815086
vt 0.900862 0.892207
vt 0.968971 0.815086
vt 0.994257 0.890899
vt 0.900862 0.892207
vt 0.994257 0.890899
vt 0.958543 0.962400
vt 0.900862 0.892207
vn 0.218317 0.753141 0.620577
vn 0.218317 0.753141 0.620577
vn 0.218317 0.753141 0.620577
vn 0.687558 0.483507 0.541743
vn 0.687558 0.483507 0.541743
vn 0.687558 0.483507 0.541743
vn 0.941221 0.312661 0.127850
vn 0.941221 0.312661 0.127850
vn 0.941221 0.312661 0.127849
vn 0.825533 0.303823 -0.475592
vn 0.825533 0.303823 -0.475592
vn 0.825533 0.303823 -0.475592
vn 0.626793 0.417514 -0.657885
vn 0.626793 0.417514 -0.657885
vn 0.626793 0.417514 -0.657885
vn 0.123339 0.728507 -0.673843
vn 0.123339 0.728507 -0.673843
vn 0.123339 0.728507 -0.673843
vn -0.198199 0.933691 -0.298226
vn -0.198199 0.933691 -0.298226
vn -0.198199 0.933691 -0.298226
vn -0.169869 0.950250 0.261093
vn -0.169869 0.950250 0.261093
vn -0.169869 0.950250 0.261093
s off
g model1:abta275_2_Mesh_015__n_abta275_2_Mesh_015__n__null_ polySurface39
usemtl model1:initialShadingGroup
f 52/140/148 53/141/149 54/142/150
f 53/143/151 55/144/152 54/145/153
f 55/146/154 56/147/155 54/148/156
f 56/149/157 57/150/158 54/151/159
f 57/152/160 58/153/161 54/154/162
f 58/155/163 59/156/164 54/157/165
f 59/158/166 60/159/167 54/160/168
f 60/161/169 52/162/170 54/163/171
g default
v -2.671202 13.733734 -0.684769
v -3.104581 13.078176 -0.604769
v -2.905536 12.839086 -1.485619
v -3.104581 13.078176 -0.604769
v -2.671202 13.733734 -0.684769
v -3.345990 14.230291 -0.271442
v -3.779369 13.574703 -0.191442
v -3.945857 14.693409 -0.549048
v -4.379236 14.037851 -0.469049
v -4.494553 14.851824 -1.400276
v -4.927932 14.196265 -1.320276
v -4.295478 14.612734 -2.281155
v -4.728857 13.957176 -2.201155
v -3.620661 14.116207 -2.694453
v -4.054069 13.460619 -2.614454
v -2.865433 13.653059 -2.398058
v -3.298812 12.997501 -2.318087
v -2.472127 13.494645 -1.565619
v -2.671202 13.733734 -0.684769
vt 0.017222 0.984210
vt 0.019654 0.835856
vt 0.112270 0.835875
vt 0.773821 0.835856
vt 0.771389 0.984210
vt 0.676040 0.984137
vt 0.676040 0.984137
vt 0.680732 0.835744
vt 0.773821 0.835856
vt 0.680732 0.835744
vt 0.676040 0.984137
vt 0.593453 0.984190
vt 0.593453 0.984190
vt 0.598094 0.835825
vt 0.680732 0.835744
vt 0.598094 0.835825
vt 0.593453 0.984190
vt 0.489353 0.983988
vt 0.489353 0.983988
vt 0.490621 0.835517
vt 0.598094 0.835825
vt 0.490621 0.835517
vt 0.489353 0.983988
vt 0.396737 0.984000
vt 0.396737 0.984000
vt 0.394305 0.835535
vt 0.490621 0.835517
vt 0.394305 0.835535
vt 0.396737 0.984000
vt 0.303648 0.984073
vt 0.303648 0.984073
vt 0.298956 0.835648
vt 0.394305 0.835535
vt 0.298956 0.835648
vt 0.303648 0.984073
vt 0.209333 0.984166
vt 0.209333 0.984166
vt 0.205119 0.835788
vt 0.298956 0.835648
vt 0.205119 0.835788
vt 0.209333 0.984166
vt 0.113537 0.984222
vt 0.113537 0.984222
vt 0.112270 0.835875
vt 0.205119 0.835788
vt 0.112270 0.835875
vt 0.113537 0.984222
vt 0.017222 0.984210
vn 0.808453 -0.495741 0.317245
vn 0.808453 -0.495741 0.317245
vn 0.808453 -0.495741 0.317245
vn 0.421010 -0.169584 0.891062
vn 0.421010 -0.169584 0.891062
vn 0.421010 -0.169584 0.891062
vn 0.421018 -0.169582 0.891059
vn 0.421018 -0.169582 0.891059
vn 0.421018 -0.169582 0.891059
vn -0.228571 0.265395 0.936654
vn -0.228571 0.265395 0.936654
vn -0.228571 0.265395 0.936654
vn -0.228557 0.265398 0.936657
vn -0.228557 0.265398 0.936657
vn -0.228557 0.265398 0.936657
vn -0.675753 0.511501 0.530777
vn -0.675753 0.511501 0.530777
vn -0.675753 0.511501 0.530777
vn -0.675752 0.511503 0.530777
vn -0.675752 0.511503 0.530777
vn -0.675752 0.511503 0.530777
vn -0.808450 0.495736 -0.317260
vn -0.808450 0.495736 -0.317260
vn -0.808450 0.495736 -0.317260
vn -0.808450 0.495737 -0.317260
vn -0.808450 0.495737 -0.317260
vn -0.808450 0.495737 -0.317260
vn -0.420984 0.169565 -0.891078
vn -0.420984 0.169565 -0.891078
vn -0.420984 0.169565 -0.891078
vn -0.420985 0.169577 -0.891075
vn -0.420985 0.169577 -0.891075
vn -0.420985 0.169577 -0.891075
vn 0.213098 -0.255940 -0.942912
vn 0.213098 -0.255940 -0.942912
vn 0.213098 -0.255940 -0.942912
vn 0.213093 -0.255898 -0.942925
vn 0.213093 -0.255898 -0.942925
vn 0.213093 -0.255898 -0.942925
vn 0.722336 -0.531496 -0.442429
vn 0.722336 -0.531496 -0.442429
vn 0.722336 -0.531496 -0.442429
vn 0.722327 -0.531538 -0.442392
vn 0.722327 -0.531538 -0.442392
vn 0.722327 -0.531538 -0.442392
vn 0.808432 -0.495759 0.317272
vn 0.808432 -0.495759 0.317272
vn 0.808432 -0.495759 0.317272
s off
g model1:abta275_2_Mesh_015__n_abta275_2_Mesh_015__n__null_ polySurface27
usemtl model1:initialShadingGroup
f 61/164/172 62/165/173 63/166/174
f 64/167/175 65/168/176 66/169/177
f 66/170/178 67/171/179 64/172/180
f 67/173/181 66/174/182 68/175/183
f 68/176/184 69/177/185 67/178/186
f 69/179/187 68/180/188 70/181/189
f 70/182/190 71/183/191 69/184/192
f 71/185/193 70/186/194 72/187/195
f 72/188/196 73/189/197 71/190/198
f 73/191/199 72/192/200 74/193/201
f 74/194/202 75/195/203 73/196/204
f 75/197/205 74/198/206 76/199/207
f 76/200/208 77/201/209 75/202/210
f 77/203/211 76/204/212 78/205/213
f 78/206/214 63/207/215 77/208/216
f 63/209/217 78/210/218 79/211/219
g default
v -3.883237 13.515577 -1.473993
v -4.696739 14.128537 -2.971532
v -3.748631 15.126231 -2.619562
v -3.368977 15.427999 -1.686426
v -3.702276 15.276190 -0.817320
v -4.694303 14.327729 -0.317504
vt 0.353694 0.687296
vt 0.333246 0.801304
vt 0.232654 0.775441
vt 0.232654 0.775441
vt 0.199478 0.703102
vt 0.353694 0.687296
vt 0.353694 0.687296
vt 0.199478 0.703102
vt 0.220384 0.634096
vt 0.220384 0.634096
vt 0.318698 0.592971
vt 0.353694 0.687296
vn 0.689572 -0.457139 -0.561706
vn 0.689572 -0.457139 -0.561706
vn 0.689572 -0.457139 -0.561706
vn 0.917742 -0.278266 -0.283403
vn 0.917742 -0.278266 -0.283403
vn 0.917742 -0.278266 -0.283403
vn 0.924091 -0.213266 0.317133
vn 0.924091 -0.213266 0.317133
vn 0.924091 -0.213266 0.317133
vn 0.653441 -0.322581 0.684804
vn 0.653441 -0.322581 0.684804
vn 0.653441 -0.322581 0.684804
s off
g model1:abta275_2_Mesh_015__n_abta275_2_Mesh_015__n__null_ polySurface36
usemtl model1:initialShadingGroup
f 80/212/220 81/213/221 82/214/222
f 82/215/223 83/216/224 80/217/225
f 80/218/226 83/219/227 84/220/228
f 84/221/229 85/222/230 80/223/231
