# This file uses centimeters as units for non-parametric coordinates.

mtllib pocketR.mtl
g default
v -2.439100 10.912514 1.340680
v -2.382175 12.260386 0.889011
v -2.692193 12.287924 1.049304
v -2.884046 10.943046 1.637193
v -2.481757 9.535313 1.535850
v -3.066974 9.674439 2.008803
v -3.226269 8.978573 0.052991
v -2.481757 9.535313 1.535850
v -2.619885 9.056547 0.260521
v -2.847084 11.739433 -0.895206
v -3.053205 10.328383 -0.503984
v -2.573089 10.362878 -0.316418
v -2.619885 9.056547 0.260521
v -2.516135 11.710751 -0.768087
v -2.516135 11.710751 -0.768087
v -2.382175 12.260386 0.889011
vt 0.683754 0.846230
vt 0.679782 0.946840
vt 0.646079 0.947442
vt 0.646079 0.947442
vt 0.646496 0.838989
vt 0.683754 0.846230
vt 0.697591 0.748764
vt 0.683754 0.846230
vt 0.646496 0.838989
vt 0.646496 0.838989
vt 0.644186 0.744323
vt 0.697591 0.748764
vt 0.484604 0.748449
vt 0.644186 0.744323
vt 0.646496 0.838989
vt 0.614970 0.697426
vt 0.644186 0.744323
vt 0.484604 0.748449
vt 0.484604 0.748449
vt 0.504217 0.700274
vt 0.614970 0.697426
vt 0.646496 0.838989
vt 0.646079 0.947442
vt 0.486201 0.961917
vt 0.486201 0.961917
vt 0.480462 0.855023
vt 0.646496 0.838989
vt 0.646496 0.838989
vt 0.480462 0.855023
vt 0.484604 0.748449
vt 0.484604 0.748449
vt 0.480462 0.855023
vt 0.446667 0.852651
vt 0.446667 0.852651
vt 0.433290 0.748798
vt 0.484604 0.748449
vt 0.480462 0.855023
vt 0.486201 0.961917
vt 0.448682 0.964971
vt 0.448682 0.964971
vt 0.446667 0.852651
vt 0.480462 0.855023
vt 0.498675 0.986547
vt 0.486201 0.961917
vt 0.646079 0.947442
vt 0.646079 0.947442
vt 0.635369 0.973409
vt 0.498675 0.986547
vn 0.461373 0.264315 0.846919
vn 0.461373 0.264315 0.846919
vn 0.461373 0.264315 0.846919
vn 0.546864 0.268615 0.792960
vn 0.546863 0.268615 0.792960
vn 0.546863 0.268615 0.792960
vn 0.556514 0.099655 0.824840
vn 0.556514 0.099655 0.824840
vn 0.556514 0.099655 0.824840
vn 0.641676 0.128943 0.756059
vn 0.641676 0.128943 0.756059
vn 0.641676 0.128943 0.756059
vn -0.988256 0.150405 0.026977
vn -0.988256 0.150405 0.026977
vn -0.988256 0.150405 0.026977
vn 0.044037 -0.942357 0.331698
vn 0.044037 -0.942357 0.331698
vn 0.044037 -0.942357 0.331698
vn 0.000106 -0.936208 0.351447
vn 0.000106 -0.936208 0.351447
vn 0.000106 -0.936208 0.351447
vn -0.987155 0.155964 0.034640
vn -0.987155 0.155964 0.034640
vn -0.987155 0.155964 0.034640
vn -0.987542 0.153657 0.033909
vn -0.987542 0.153657 0.033909
vn -0.987542 0.153657 0.033909
vn -0.989132 0.142219 0.037318
vn -0.989132 0.142219 0.037318
vn -0.989132 0.142219 0.037318
vn 0.358781 -0.394978 -0.845735
vn 0.358781 -0.394978 -0.845735
vn 0.358781 -0.394978 -0.845735
vn 0.342663 -0.389787 -0.854780
vn 0.342663 -0.389787 -0.854780
vn 0.342663 -0.389787 -0.854780
vn 0.319985 -0.296248 -0.899915
vn 0.319985 -0.296248 -0.899915
vn 0.319985 -0.296248 -0.899915
vn 0.365223 -0.309622 -0.877922
vn 0.365223 -0.309622 -0.877922
vn 0.365223 -0.309622 -0.877922
vn 0.189299 0.941000 -0.280508
vn 0.189299 0.941000 -0.280508
vn 0.189299 0.941000 -0.280508
vn -0.075249 0.948262 -0.308442
vn -0.075249 0.948262 -0.308442
vn -0.075249 0.948262 -0.308443
s off
g polySurface55 model1:abta274_2_Mesh_013__n_abta274_2_Mesh_013__n__null_
usemtl model1:initialShadingGroup
f 1/1/1 2/2/2 3/3/3
f 3/4/4 4/5/5 1/6/6
f 5/7/7 1/8/8 4/9/9
f 4/10/10 6/11/11 5/12/12
f 7/13/13 6/14/14 4/15/15
f 8/16/16 6/17/17 7/18/18
f 7/19/19 9/20/20 8/21/21
f 4/22/22 3/23/23 10/24/24
f 10/25/25 11/26/26 4/27/27
f 4/28/28 11/29/29 7/30/30
f 7/31/31 11/32/32 12/33/33
f 12/34/34 13/35/35 7/36/36
f 11/37/37 10/38/38 14/39/39
f 14/40/40 12/41/41 11/42/42
f 15/43/43 10/44/44 3/45/45
f 3/46/46 16/47/47 15/48/48
g default
v -3.126306 10.694826 -0.626054
v -2.955855 11.354817 1.495337
v -2.692193 12.287924 1.049304
v -2.847084 11.739433 -0.895206
vt 0.460607 0.674856
vt 0.498239 0.359863
vt 0.644768 0.396070
vt 0.644768 0.396070
vt 0.617976 0.683307
vt 0.460607 0.674856
vn -0.963090 0.269105 -0.006339
vn -0.963090 0.269105 -0.006339
vn -0.963090 0.269105 -0.006339
vn -0.965829 0.259152 0.003835
vn -0.965829 0.259152 0.003835
vn -0.965829 0.259152 0.003835
s off
g model1:abta274_2_Mesh_013__n_abta274_2_Mesh_013__n__null_ polySurface53
usemtl model1:initialShadingGroup
f 17/49/49 18/50/50 19/51/51
f 19/52/52 20/53/53 17/54/54
g default
v -2.573089 10.362878 -0.316418
v -2.516135 11.710751 -0.768087
v -2.382175 12.260386 0.889011
v -2.439100 10.912514 1.340680
v -2.619885 9.056547 0.260521
v -2.481757 9.535313 1.535850
vt 0.481752 0.855352
vt 0.487177 0.964250
vt 0.644963 0.949285
vt 0.644963 0.949285
vt 0.647691 0.842475
vt 0.481752 0.855352
vt 0.482998 0.749363
vt 0.481752 0.855352
vt 0.647691 0.842475
vt 0.647691 0.842475
vt 0.644027 0.746625
vt 0.482998 0.749363
vn 0.996265 -0.062174 -0.059916
vn 0.996265 -0.062174 -0.059916
vn 0.996265 -0.062174 -0.059916
vn 0.996265 -0.062160 -0.059938
vn 0.996265 -0.062160 -0.059938
vn 0.996265 -0.062160 -0.059938
vn 0.996265 -0.062160 -0.059938
vn 0.996265 -0.062160 -0.059938
vn 0.996265 -0.062160 -0.059938
vn 0.994859 -0.043756 -0.091324
vn 0.994859 -0.043756 -0.091324
vn 0.994859 -0.043756 -0.091324
s off
g model1:abta274_2_Mesh_013__n_abta274_2_Mesh_013__n__null_ polySurface54
usemtl model1:initialShadingGroup
f 21/55/55 22/56/56 23/57/57
f 23/58/58 24/59/59 21/60/60
f 25/61/61 21/62/62 24/63/63
f 24/64/64 26/65/65 25/66/66
